<?xml version="1.0" encoding="UTF-8"?>
<svg xmlns="http://www.w3.org/2000/svg" width="8cm" height="8cm" xmlns:xlink="http://www.w3.org/1999/xlink" viewBox="0 0 226.77 226.77">
  <defs>
    <style>
      .cls-1 {
        stroke: #000;
        stroke-width: .25px;
      }

      .cls-1, .cls-2, .cls-3 {
        fill: #a71a17;
      }

      .cls-1, .cls-4, .cls-5, .cls-6, .cls-7, .cls-8 {
        stroke-miterlimit: 10;
      }

      .cls-2 {
        fill-rule: evenodd;
      }

      .cls-9 {
        clip-path: url(#clippath-4);
      }

      .cls-10 {
        fill: #1d1d1b;
      }

      .cls-4 {
        stroke: #a71a17;
      }

      .cls-4, .cls-5, .cls-11, .cls-6, .cls-7, .cls-8 {
        fill: none;
      }

      .cls-4, .cls-5, .cls-7 {
        stroke-width: 2px;
      }

      .cls-12 {
        fill: #fff;
      }

      .cls-5 {
        stroke: #f6f6f6;
      }

      .cls-13 {
        fill: #377530;
      }

      .cls-14 {
        clip-path: url(#clippath-1);
      }

      .cls-6 {
        stroke: #184c88;
        stroke-width: 6px;
      }

      .cls-15 {
        clip-path: url(#clippath-5);
      }

      .cls-16 {
        fill: #868584;
      }

      .cls-17 {
        clip-path: url(#clippath-3);
      }

      .cls-18 {
        fill: #184c88;
      }

      .cls-19 {
        fill: #1c4c88;
      }

      .cls-7 {
        stroke: #fff;
      }

      .cls-20 {
        fill: #fbd227;
      }

      .cls-8 {
        stroke: #1d1d1b;
        stroke-width: .5px;
      }

      .cls-21 {
        clip-path: url(#clippath-2);
      }

      .cls-22 {
        clip-path: url(#clippath);
      }

      .cls-23 {
        fill: #c8c1a4;
      }
    </style>
    <clipPath id="clippath">
      <circle class="cls-11" cx="113.39" cy="113.39" r="113.39"/>
    </clipPath>
    <clipPath id="clippath-1">
      <path class="cls-11" d="M0,113.39C0,176.01,50.76,226.77,113.39,226.77V0C50.76,0,0,50.76,0,113.39Z"/>
    </clipPath>
    <clipPath id="clippath-2">
      <path class="cls-11" d="M113.39,0h0v226.77h0c62.62,0,113.39-50.76,113.39-113.39S176.01,0,113.39,0Z"/>
    </clipPath>
    <clipPath id="clippath-3">
      <path class="cls-11" d="M113.39,0h0v226.77h0c62.62,0,113.39-50.76,113.39-113.39S176.01,0,113.39,0Z"/>
    </clipPath>
    <clipPath id="clippath-4">
      <rect class="cls-11" y="0" width="113.39" height="226.77"/>
    </clipPath>
    <clipPath id="clippath-5">
      <rect class="cls-11" x="113.39" y="0" width="113.39" height="226.77"/>
    </clipPath>
  </defs>
  <g id="FOND">
    <g class="cls-22">
      <rect class="cls-19" y="0" width="113.39" height="226.77"/>
      <rect class="cls-10" x="113.39" y="0" width="113.39" height="226.77"/>
    </g>
  </g>
  <g id="PART_GAUCHE">
    <g class="cls-14">
      <g id="CROIX_DE_LORRAINE">
        <polygon class="cls-2" points="39.39 195.71 39.39 111.34 .29 111.34 .29 99.08 39.39 99.08 39.39 87.24 15.55 87.24 15.55 74.98 39.39 74.98 39.39 55.69 52.45 55.69 52.45 74.98 76.29 74.98 76.29 87.24 52.45 87.24 52.45 99.08 91.56 99.08 91.56 111.34 52.45 111.34 52.45 195.71 39.39 195.71"/>
        <path class="cls-20" d="M51.75,56.39v19.28h23.84v10.86h-23.84v13.25h39.1v10.86h-39.1v84.37h-11.66v-84.37H.99v-10.86h39.1v-13.25h-23.84v-10.86h23.84v-19.28h11.66M53.15,54.99h-14.46v19.28H14.85v13.66h23.84v10.45H-.41v13.66h39.1v84.37h14.46v-84.37h39.1v-13.66h-39.1v-10.45h23.84v-13.66h-23.84v-19.28h0Z"/>
      </g>
      <g id="FLEUR_DE_LYS">
        <path class="cls-20" d="M91.24,48.34c.41.72.83,1.43,1.22,2.15,1.03,1.87,2.04,3.75,2.65,5.81.46,1.56.37,3.07-.36,4.54-.78,1.56-1.54,3.12-1.99,4.82-.27,1.03-.49,2.07-.62,3.13-.03.27-.14.36-.39.35-.31-.01-.61-.02-.92,0-.31.02-.42-.12-.46-.42-.17-1.38-.48-2.73-.91-4.05-.39-1.22-.93-2.37-1.49-3.52-.54-1.12-.95-2.26-.84-3.53.09-1,.37-1.95.75-2.87.89-2.2,2.06-4.26,3.26-6.3.02-.03.05-.05.1-.11Z"/>
        <path class="cls-20" d="M100.81,70c.1-.47.23-.92.28-1.38.05-.43.02-.86-.09-1.28-.31-1.15-1.27-1.86-2.66-1.84-2.06.03-3.62.97-4.57,2.81-.21.4-.44.59-.85.67-.57.1-.56.12-.46-.46.31-1.76.83-3.46,1.82-4.97,1.03-1.59,2.41-2.74,4.32-3.06,2.55-.42,5.24.68,5.95,3.34.64,2.37-.63,4.86-2.99,5.9-.23.1-.45.23-.74.26Z"/>
        <path class="cls-20" d="M81.71,70.04c-1.84-.63-3.14-1.73-3.7-3.56-.86-2.79.91-5.5,3.8-5.97,3.01-.5,5.36,1.14,6.7,3.51.82,1.45,1.27,3.02,1.56,4.64.06.33-.04.39-.35.33-.47-.1-.8-.26-1.04-.76-.87-1.81-2.95-2.9-4.96-2.7-1.54.16-2.53,1.47-2.32,3.05.06.47.18.93.3,1.45Z"/>
        <path class="cls-20" d="M94.28,76.78c-.76.16-1.33-.09-1.88-.58-.08.62-.18,1.18-.37,1.72-.19.53-.42,1.04-.76,1.56-.65-1.01-1.08-2.06-1.22-3.29-.56.48-1.13.86-1.93.67.31-.41.59-.81.88-1.19.82-1.1,1.38-2.31,1.5-3.7.03-.3.14-.33.39-.29.23.03.48.06.7.01.41-.1.46.11.49.44.1,1.37.57,2.6,1.41,3.69.24.32.51.62.81.96Z"/>
        <path class="cls-20" d="M85.78,70.9c.06.6.15,1.11.42,1.56.41.7,1.15.88,1.83.44.49-.31.79-.77.96-1.31.07-.21.16-.29.37-.18.09.04.19.06.28.08.61.16.62.16.51.8-.17.94-.5,1.81-1.31,2.39-.84.6-1.75.62-2.64.16-.83-.42-1.3-1.12-1.27-2.08.02-.7.34-1.28.85-1.87Z"/>
        <path class="cls-20" d="M96.73,70.95c.69.58,1.03,1.72.77,2.55-.27.87-1.14,1.54-2.09,1.62-1.24.1-2.23-.53-2.75-1.78-.19-.46-.28-.94-.36-1.42-.03-.2.01-.32.24-.35.28-.04.57-.22.82-.16.26.07.24.47.39.69.19.29.4.56.69.75.72.48,1.48.3,1.9-.46.25-.44.32-.94.39-1.44Z"/>
        <path class="cls-20" d="M91.31,71.33c-.7-.03-1.44-.11-2.13-.43-.61-.29-.89-.77-.88-1.44,0-.33.13-.43.44-.34,1.67.52,3.35.52,5.03.02.29-.09.42.05.43.32,0,.58-.16,1.08-.71,1.39-.52.29-1.29.48-2.18.47Z"/>
      </g>
      <g id="FLEUR_DE_LYS-2" data-name="FLEUR_DE_LYS">
        <path class="cls-20" d="M113.42,26.22c.41.72.83,1.43,1.22,2.15,1.03,1.87,2.04,3.75,2.65,5.81.46,1.56.37,3.07-.36,4.54-.78,1.56-1.54,3.12-1.99,4.82-.27,1.03-.49,2.07-.62,3.13-.03.27-.14.36-.39.35-.31-.01-.61-.02-.92,0-.31.02-.42-.12-.46-.42-.17-1.38-.48-2.73-.91-4.05-.39-1.22-.93-2.37-1.49-3.52-.54-1.12-.95-2.26-.84-3.53.09-1,.37-1.95.75-2.87.89-2.2,2.06-4.26,3.26-6.3.02-.03.05-.05.1-.11Z"/>
        <path class="cls-20" d="M122.99,47.87c.1-.47.23-.92.28-1.38.05-.43.02-.86-.09-1.28-.31-1.15-1.27-1.86-2.66-1.84-2.06.03-3.62.97-4.57,2.81-.21.4-.44.59-.85.67-.57.1-.56.12-.46-.46.31-1.76.83-3.46,1.82-4.97,1.03-1.59,2.41-2.74,4.32-3.06,2.55-.42,5.24.68,5.95,3.34.64,2.37-.63,4.86-2.99,5.9-.23.1-.45.23-.74.26Z"/>
        <path class="cls-20" d="M103.89,47.92c-1.84-.63-3.14-1.73-3.7-3.56-.86-2.79.91-5.5,3.8-5.97,3.01-.5,5.36,1.14,6.7,3.51.82,1.45,1.27,3.02,1.56,4.64.06.33-.04.39-.35.33-.47-.1-.8-.26-1.04-.76-.87-1.81-2.95-2.9-4.96-2.7-1.54.16-2.53,1.47-2.32,3.05.06.47.18.93.3,1.45Z"/>
        <path class="cls-20" d="M116.45,54.66c-.76.16-1.33-.09-1.88-.58-.08.62-.18,1.18-.37,1.72-.19.53-.42,1.04-.76,1.56-.65-1.01-1.08-2.06-1.22-3.29-.56.48-1.13.86-1.93.67.31-.41.59-.81.88-1.19.82-1.1,1.38-2.31,1.5-3.7.03-.3.14-.33.39-.29.23.03.48.06.7.01.41-.1.46.11.49.44.1,1.37.57,2.6,1.41,3.69.24.32.51.62.81.96Z"/>
        <path class="cls-20" d="M107.95,48.77c.06.6.15,1.11.42,1.56.41.7,1.15.88,1.83.44.49-.31.79-.77.96-1.31.07-.21.16-.29.37-.18.09.04.19.06.28.08.61.16.62.16.51.8-.17.94-.5,1.81-1.31,2.39-.84.6-1.75.62-2.64.16-.83-.42-1.3-1.12-1.27-2.08.02-.7.34-1.28.85-1.87Z"/>
        <path class="cls-20" d="M118.91,48.83c.69.58,1.03,1.72.77,2.55-.27.87-1.14,1.54-2.09,1.62-1.24.1-2.23-.53-2.75-1.78-.19-.46-.28-.94-.36-1.42-.03-.2.01-.32.24-.35.28-.04.57-.22.82-.16.26.07.24.47.39.69.19.29.4.56.69.75.72.48,1.48.3,1.9-.46.25-.44.32-.94.39-1.44Z"/>
        <path class="cls-20" d="M113.48,49.21c-.7-.03-1.44-.11-2.13-.43-.61-.29-.89-.77-.88-1.44,0-.33.13-.43.44-.34,1.67.52,3.35.52,5.03.02.29-.09.42.05.43.32,0,.58-.16,1.08-.71,1.39-.52.29-1.29.48-2.18.47Z"/>
      </g>
      <g id="CHEVAL">
        <path id="CHEVAL-2" data-name="CHEVAL" class="cls-16" d="M68.66,215.31c.97,0,.87.58.88,1.32-4.66-3.73-9.05-7.44-11.05-13.18-.72-2.06-1.05-4.18-.88-6.35.3-3.85,1.72-7.35,3.56-10.69,3.29-5.97,7.72-11.13,11.83-16.52,2.73-3.59,5.48-7.16,7.36-11.3,1.4-3.08,2.08-6.27,1.37-9.65-.22-1.06-.66-2.04-1.18-2.99-.13-.24-.26-.56-.57-.54-.39.02-.3.4-.36.65-1.02,4.54-3.5,7.63-8.23,8.76-3.87.93-7.71,2.02-11.32,3.78-1.66.8-2.97,2.01-3.35,3.83-.52,2.43-2.12,3.42-4.34,3.78-3.25.52-6.28.07-8.86-2.16-.74-.64-1.36-1.36-1.28-2.45.04-.53-.38-.86-.65-1.24-1.28-1.78-1.28-2.8-.02-4.55,3.88-5.41,7.81-10.79,11.38-16.42.95-1.5,1.52-3.12,1.52-4.96,0-2.33,1.54-3.97,2.91-5.62,1.99-2.39,4.05-4.72,6.13-7.04.57-.64.67-1.04.03-1.77-2.07-2.35-2.26-5.23-2.12-8.43,2.36,1.96,5.08,2.79,7.66,3.93.92.4,1.79.9,2.44,1.69.34.41.63.5,1.11.21,4.88-2.91,10.15-3.19,15.61-2.4,1.62.24,3.18.66,5,1.31-1.65.47-3.02.86-4.16,1.74-.31.24-.62.5-.89.79-.18.19-.41.43-.28.73.13.32.46.28.73.28,14.47.49,23.68,8.52,29.85,20.88.62,1.25,1.15,2.54,1.65,3.84.5,1.3.91,2.62,1.26,4.02-1.16-1.24-2.38-2.39-3.64-3.49-2.8-2.42-5.82-4.45-9.34-5.67-.35-.12-.77-.49-1.1-.18-.37.35.06.74.2,1.08,1.92,4.52,3.27,9.16,3,14.14-.06,1.16-.22,2.3-.46,3.43-.16.72-.04,1.27.62,1.76.7.51,1.3,1.17,1.91,1.8.58.6.94.48,1.15-.28.79-2.76.99-5.56.68-8.41-.27-2.46-.88-4.85-1.64-7.21,3.31,4.51,5.71,9.43,6.58,14.99,1.44,9.19-.99,16.37-4.02,25.58s.73,13.19.21,16.38c-1.41,8.69-15.77,10.36-23.1,5.41-2.34-1.58-4.56-3.26-7.2-4.34-1.19-.49-2.07-1.48-2.94-2.42-.44-.48-.83-.64-1.43-.24-3.37,2.24-6.57,4.66-9.06,7.9-1.16,1.51-1.97,3.18-2.32,5.06-.1.53-.16,1.09-.83,1.4ZM72.18,195.85c0-.33-.13-.48-.33-.54-.26-.07-.47.07-.61.28-.34.54-.69,1.07-.98,1.63-.22.44-.8,1.13-.41,1.34.64.35.72-.61,1.07-.97.36-.37.65-.81.95-1.22.14-.19.24-.4.31-.53Z"/>
        <path class="cls-18" d="M62.21,134.92c-.94.03-1.47-.78-1.02-1.57,1.03-1.8,2.47-3.32,3.44-5.17.08-.16.31-.33.47-.34.97-.03,1.58.64,2.19,1.26.54.54.51,1.22.07,1.74-1.35,1.59-2.86,3.01-4.76,3.94-.14.07-.3.11-.39.14Z"/>
      </g>
    </g>
  </g>
  <g id="PART_DROIT">
    <g class="cls-21">
      <g id="ROSE">
        <g id="TIGES">
          <path class="cls-13" d="M124.8,33.26c1.59.66,3.21.65,4.78-.08,2.2-1.02,3.33-2.89,3.81-5.18.25-1.21.34-2.46.5-3.68.13-1.15-.19-.52-.51-.37s-1.08.14-1.62.08c-1.72-.17-3.41-.08-5,.66-1.89.88-3.37,2.16-3.88,4.27-.44,1.86.38,3.64,1.92,4.29ZM127.59,29.74c.12.41.24.55.53.28.73-.66,1.43-1.32,1.58-2.45q.3.31.61.11c-.27.92-.91,1.55-1.66,2.09-.69.5-1.05,1.45-2.23,1.39.63-.27.96-.72,1.16-1.42Z"/>
          <path class="cls-13" d="M116.12,32.37c.91,1.22,2.1,1.27,3.14.17,2.26-2.41,2.6-5.87.85-8.66-.27-.44-.51-.44-.81-.04-.46.61-1.02,1.11-1.69,1.48-.98.66-1.33,1.45-1.63,2.25-.16.57-.34,1.13-.47,1.7-.25,1.12-.09,2.18.61,3.11Z"/>
          <path class="cls-13" d="M151.95,64.49c.06-.33-.24-.33-.46-.39-.51-.13-1.02-.25-1.53-.37-2.6-.64-4.82-1.92-6.62-3.98.08-.06.09-.09.11-.09.15-.02.29-.03.44-.04,3.42-.29,5.98-1.84,7.38-5.06.72-1.67.71-3.36-.09-5-.85-1.74-2.68-2.68-4.41-2.31-1.73.37-2.88,2.48-2.15,3.95.29.58,1.02.99,1.61.9.51-.08,1.1-.67,1.19-1.18.04-.23.08-.54-.19-.59-.23-.04-.19.27-.23.44-.11.47-.33.84-.86.86-.51.02-.8-.32-.97-.76-.33-.82.24-2.18,1.13-2.71,1.48-.89,3.35-.29,4.14,1.37.75,1.59.78,3.25-.01,4.82-1.41,2.79-3.63,4.45-6.85,4.63-.61.03-1.01-.15-1.38-.66-1.6-2.18-2.62-4.64-3.63-7.12-.49-1.2-.95-2.41-1.44-3.6-.82-2.01-1.69-4-2.82-5.88-1.51-2.52-3.43-4.61-6.03-6.04-4.1-2.25-8.36-2.45-12.75-1.04-.98.32-1.93.71-2.88,1.11-.91.39-1.77.88-2.57,1.47-.22.16-.4.34-.23.63.19.32.44.16.66.04.66-.36,1.33-.73,1.98-1.11.59-.34,1.21-.54,1.91-.54,2.71.02,5.34.49,7.72,1.8,2.73,1.5,4.43,3.76,4.63,6.97.1,1.73-.33,3.29-1.52,4.6-.77.84-1.72,1.27-2.85,1.23-.89-.03-1.56-.52-1.78-1.26-.24-.79.11-1.39.66-1.91.21-.19.43-.36.66-.55-.13-.13-.24-.09-.34-.06-.75.23-1.4,1.1-1.48,1.95-.08.9.35,1.7,1.12,2.09,1.9.96,4.42.12,5.52-1.9,1.61-2.96,1.49-5.89-.45-8.63-1.97-2.78-4.79-4.21-8.12-4.66-.84-.12-1.69-.2-2.54-.3.35-.28.71-.39,1.11-.38,1.16.02,2.31.08,3.45.32,3.01.66,5.63,1.97,7.45,4.56,1.65,2.34,2.71,4.98,3.72,7.63.45,1.19.92,2.38,1.43,3.55.35.8.71,1.58,1.1,2.36,1.54,3.04,3.89,5.02,7.26,5.7.64.13,1.12.41,1.55.87,1.04,1.14,2.2,2.13,3.59,2.84,1.61.81,3.3,1.35,5.08,1.64.22.04.51.09.57-.22ZM140.67,58.59c-2.42-.71-4.25-2.13-5.33-4.46-.54-1.16-1-2.35-1.44-3.54-.38-1.03-.76-2.07-1.16-3.09-.85-2.19-1.72-4.37-2.84-6.46-1.84-3.44-4.71-5.38-8.48-6.12-.23-.04-.45-.08-.68-.13-.03,0-.05-.06-.11-.14,1.37-.08,2.68.03,3.95.43,2.82.88,5.35,2.27,7.23,4.61,1.52,1.89,2.76,3.96,3.69,6.22.33.81.66,1.61.99,2.42.8,1.98,1.61,3.95,2.43,5.92.57,1.36,1.26,2.66,2.1,3.87.09.13.27.27.17.44-.13.21-.35.08-.52.03Z"/>
          <path class="cls-13" d="M123.27,43.53c-.57-.91-1-1.89-1.65-2.75-2.39-3.2-6.05-3.92-8.82-3.1-.5.15-.77.44-.91.93-.45,1.58.24,3.42,1.7,4.49,1.7,1.05,3.49,1.67,5.51,1.17,1.29-.32,2.58-.57,3.92-.34.36.06.42-.12.24-.4ZM117.84,40.18c-.19-.1-.41-.35-.62-.16-.17.16.14.35.14.76-.68-1.18-1.57-1.69-2.77-1.68-.06.32.29.41.31.75-.6-.6-1.21-1.11-2.11-1.02.56-.18,1.1.04,1.62-.01,1.1-.11,1.99.34,2.88.88.17.11.39.13.58.22.34.15.87-.22,1.01.54.07.36.83.48,1.33.97-.9-.48-1.63-.89-2.38-1.27Z"/>
        </g>
        <g id="MOTIFS">
          <path d="M127.76,32.31c-.52-.1-1.03-.16-1.55-.23-.1-.01-.22-.06-.26-.14-.06-.11.06-.19.15-.24.6-.33,1.13-.8,1.9-.69.42.06.85-.06,1.25-.23-.23-.03-.46.01-.68.02-.2,0-.47.13-.56-.11-.07-.19.18-.31.31-.43.91-.84,2-1.53,2.33-2.82-.21.09-.35.61-.52.45-.44-.42-.34.07-.37.19-.26,1.01-1.02,1.58-1.76,2.18-.27-.24.07-.5-.15-.78-.22.77-.49,1.45-1.27,1.73-.21.08-.43.35-.62.2-.2-.16.06-.42.07-.64,0-.03-.03-.06-.06-.14-.29.67-.59,1.31-1.41,1.46,1.12-.19,2.15.43,3.23.21Z"/>
          <path d="M118.97,40.09s-.12-.04-.18-.03c-.78.06-1.41-.35-2.08-.63-.38-.16-.47-.29-.03-.61-1.33.34-2.56-.09-3.82.09.93-.12,1.54.43,2.18.97-.01-.1-.06-.16-.1-.23-.07-.14-.33-.23-.21-.41.12-.19.35-.05.52-.03.84.11,1.5.51,1.96,1.23.13.2.3.36.45.55-.06-.36-.36-.61-.38-1.11,1.11.6,2.13,1.15,3.13,1.69-.32-.62-1.39-.53-1.44-1.47Z"/>
          <path d="M119.63,28.76c.11.44-.55.15-.41.53.1.3.15.62.08.93-.06.27-.14.53-.22.79-.1.32-.31.34-.62.08.14.6.08,1.06-.11,1.52.57-.78.81-1.75,1.59-2.39-.26.1-.45.14-.39-.23.08-.52.13-1.04.4-1.51.15-.25.21-.5-.19-.65-.05.32-.2.65-.13.93Z"/>
        </g>
        <g id="ROSE-2" data-name="ROSE">
          <path class="cls-1" d="M166.29,75.25l.09.11c.08.1.17.2.25.3.57.71,1.16,1.05,1.82,1.05.25,0,.53-.05.81-.15.49-.29.73-.61.76-1.05,0-.26.02-.53-.01-.6,0,0,0,0,0,0,0,0-.02,0-.05,0-.11,0-.28.03-.53.08l-.12.02c-.21.04-.42.08-.64.08-.26,0-.48-.06-.68-.18-1.15-.71-1.76-1.63-1.87-2.82l-.36-1.13s-.05-.06-.08-.1c-.03-.04-.07-.09-.09-.11,0,0,0,0-.02,0-.03.01-.04.02-.02.2,0,.04.01.07.01.11.07.75.13,1.5.2,2.24l.07.73.22.58.23.62Z"/>
          <path class="cls-1" d="M159.26,55.63s-.02.1-.03.14c-.02.1-.03.16-.03.19.11,1.54-.75,2.57-1.6,3.38-.82.78-1.72,1.74-2.16,3.02-.31.9-.39,1.07-1.27,1.07h-.24s0,0,0,0c-.67,0-1.3.47-1.4,1.03-.11.57.28,1.08.99,1.29.13.04.3.09.44.09.03,0,.06,0,.08,0,.35-.07.72-.09,1.19-.09.21,0,.43,0,.65.01h.05c.78.02,1.41.23,1.99.64.71.51,1.13,1.23,1.53,1.93l.19.32c.15.25.23.28.24.29,0,0,.03-.02.08-.09.38-.64.56-1.2.56-1.8,0-1.02.22-1.78.67-2.39,1.63-2.21,1.42-5.48-.49-7.61-.41-.46-.68-.88-.84-1.34-.12-.34-.18-.45-.33-.45v-.09s0,0-.02,0v.1c-.16.01-.19.07-.24.38Z"/>
          <path class="cls-1" d="M158.27,67.44c-.26-.37-.55-.64-.9-.83-.35-.2-.68-.3-.98-.3-.68,0-1.09.53-1.15,1.46-.1,1.62.5,2.85,1.81,3.76.79.55,1.57,1.13,2.33,1.7l.67.5c1.07.79,1.67,1.78,1.83,3.01.01.08.01.18.01.28,0,.41.05.48.17.48.28,0,.39-.34.5-.79v-.05c.06-.17.07-.37.06-.63-.03-.59-.19-1.14-.49-1.63l-.64-1.06-.5-.61c-.31-.37-.55-.82-.77-1.41-.61-1.64-1.22-2.84-1.96-3.88Z"/>
          <path class="cls-1" d="M163.66,75.32c.14.12.27.24.41.36.76.68,1.48,1.32,2.46,1.57l.1.03c.09.03.18.05.25.05.05,0,.09-.01.13-.07.06-.08.07-.11-.14-.31l-.07-.07c-.42-.43-.72-.92-.89-1.47l-.24-.64-.22-.58c-.19-.27-.23-.57-.27-.85l-.03-.17c-.08-.47-.13-.96-.19-1.43-.1-.84-.2-1.71-.43-2.53-.14-.5-.51-.82-.95-.82-.22,0-.45.08-.67.23-.26.18-.47.44-.63.8-.26.58-.66.71-.95.71-.15,0-.31-.03-.48-.09l-.06-.02c-.08-.03-.17-.07-.24-.07-.03,0-.06,0-.08.03-.07.07-.06.16.02.37l.03.08c.23.73.5,1.43.8,2.08l.5,1.09.61.54c.22.19.42.39.62.59.2.2.39.4.6.58Z"/>
          <path class="cls-1" d="M169.5,59.9c-.15.01-.31.05-.51.12-2.24.74-3.86,2.05-4.94,4.01-.25.45-.52.95-.94,1.27-.95.74-1.5,1.73-2.07,2.78-.17.31-.34.63-.52.93-.1.16-.08.21-.05.25.02.03.05.05.14.05.04,0,.09,0,.13-.01.36-.05.7-.24,1.02-.57.64-.66,1.42-.98,2.46-1,1.36-.02,2.51-.58,3.41-1.66.31-.38.45-.84.59-1.36.1-.38.19-.78.27-1.17.24-1.14.49-2.32,1.29-3.32.07-.09.1-.17.07-.22-.02-.05-.12-.1-.28-.1-.02,0-.05,0-.07,0Z"/>
          <path class="cls-1" d="M172.56,65.59c-.14-.61-.4-1.06-.79-1.4-.11-.09-.21-.14-.3-.14-.1,0-.19.06-.27.18l-.08.11c-.27.36-.27.45-.15.55,1.13.87,1.04,2.02.87,3.02v.07c-.03.15-.07.5-.41.5-.04,0-.09,0-.13-.02-.17-.05-.24-.15-.27-.22-.07-.18.03-.36.11-.49.34-.6.29-1.14-.17-1.84-.04-.06-.07-.12-.09-.13,0,0,0,.05,0,.08,0,.03,0,.06,0,.09-.04.49-.12.95-.66,1.33l-.29.2-.02-.35c-.13-1.84.23-3.47,1.09-4.99.1-.18.26-.35.44-.47.13-.09.18-.16.18-.2,0-.02-.02-.1-.24-.25-.15-.11-.33-.16-.52-.16-.33,0-.65.17-.88.47-.45.58-.62,1.27-.79,1.99-.04.15-.07.3-.11.45-.43,1.67-1.08,3.5-3.22,4.18-.06.02-.08.03-.1.04,0,0,0,0,0,0,.02,0,.05.04.13.1.13.1.26.19.39.29.35.26.71.53,1.08.75l.06.04c.98.58,2,1.17,3.13,1.39.17.03.28.05.37.05s.11-.02.11-.02c.01-.02.04-.12-.07-.55l-.09-.36.35.12c.12.04.23.06.33.06.27,0,.48-.16.7-.57.6-1.09.7-2.29.32-3.9Z"/>
          <path class="cls-1" d="M165.35,61.46c.47-.53,1.07-.96,1.9-1.35.87-.41,1.67-1.02,2.57-1.98.17-.18.25-.34.24-.47,0-.12-.08-.25-.23-.37-.39-.33-.57-.73-.56-1.25,0-.45-.19-.85-.58-1.15-.54-.42-.95-.81-1.31-1.23-.08-.09-.16-.15-.22-.15s-.12.07-.17.2c-.35.84-.88,1.61-1.48,2.17-.66.93-.9,1.91-.71,3.06.15.94.2,1.66.15,2.36v.07c-.02.22-.01.28.05.31.02.01.05.02.07.02.09,0,.21-.13.28-.22Z"/>
          <path class="cls-1" d="M153.14,53.76c-.09,0-.17.09-.28.23-.08.1-.13.17-.18.23l-.07.1c-1.16,1.93-1.3,3.59-.43,5.22.63,1.18,1.43,2.21,2.14,3.07.19.23.27.27.29.28,0,0,.05-.08.12-.36.26-1,.82-1.92,1.69-2.82.38-.39.39-.67.07-1.12-.53-.73-1.28-1.19-1.93-1.55-.74-.4-1.15-1.03-1.22-1.87-.02-.19-.02-.37-.02-.56,0-.13,0-.26,0-.39,0-.04,0-.09,0-.14,0-.26-.02-.29-.12-.31l-.02-.1s-.01,0-.03,0v.1Z"/>
          <path class="cls-1" d="M154.57,66.47l-.05.03c-1.94,1.1-3.11,2.69-3.48,4.71-.28,1.51-.59,2.98-1.31,4.37l-.03.06s-.08.15-.08.18c0,0,0,0,.02,0,.05,0,.12-.05.16-.08l.07-.05c1.52-.98,3.1-1.99,3.98-3.51l.32-.45c.21-.3.4-.55.59-.81.16-.22.19-.41.1-.63-.44-1.13-.49-2.32-.13-3.65v-.05c.05-.14.06-.18.03-.2h-.02s-.12.04-.18.07Z"/>
          <path class="cls-1" d="M165.59,54.95c.38-.55.6-1.17.83-1.81l.03-.1c.07-.19-.01-.24-.05-.26-.03-.02-.05-.02-.07-.02-.05,0-.11.04-.18.12-.09.09-.18.2-.25.31-.61,1.06-1.56,1.74-2.9,2.09-.48.12-.82.36-1,.69-.2.35-.21.82-.04,1.36.09.3.2.59.3.88.14.37.28.76.39,1.16.63,2.24.34,4.14-.89,5.81-.03.04-.06.07-.09.11-.23.29-.24.36-.17.42.02.02.04.02.05.02.12,0,.33-.2.45-.32,1.31-1.26,2.01-2.59,2.18-4.11.1-.93.08-1.9-.06-2.97-.15-1.13.18-2.08,1.02-2.91.11-.11.22-.23.32-.33l.13-.13Z"/>
          <path class="cls-1" d="M165.11,68.58v.1c-.03.07.03.15.07.19.04.05.08.09.1.14.06.1.12.19.18.29.3.46.61.94.66,1.55l.37,1.18c.08.14.16.32.24.5.27.6.53,1.16,1.04,1.57.36.29.7.43,1.04.43.19,0,.38-.05.57-.14.8-.39,1.21-1,1.22-1.8,0-.6-.31-1.04-.93-1.32-.59-.26-1.19-.55-1.77-.86-.39-.21-.74-.47-1.09-.72-.46-.33-.89-.65-1.39-.86-.05-.02-.1-.05-.15-.07-.06-.03-.14-.07-.17-.07v-.1s0,0,0,0Z"/>
        </g>
      </g>
      <g id="ROSE-3" data-name="ROSE">
        <path class="cls-3" d="M124.87,71.58l-.06.15-.19.47c-.59,1.44-.41,2.48.58,3.34.56.33,1.03.4,1.5.17.23-.12.43-.22.54-.29-.07-.11-.23-.29-.38-.47l-.1-.12c-.36-.43-.77-.91-.74-1.64.08-1.53.58-2.7,1.56-3.56.16-.14.33-.27.51-.4l.8-.85.12-.12c-.78.52-1.55,1.05-2.33,1.58l-.77.53-.47.55-.58.67Z"/>
        <path class="cls-3" d="M127.83,51.81c.52.64.89,1.35,1.25,2.04.51.98.67,1.84.56,2.77-.14,1.15-.7,2.07-1.23,2.97l-.25.41c-.07.11-.1.19-.13.25.96.03,1.65-.11,2.28-.46,1.17-.64,2.19-.88,3.19-.75,2.07.27,4.21-.41,5.86-1.88,1.02-.91,1.79-2.05,2.22-3.29.26-.77.59-1.34,1.02-1.82.34-.37.32-.42.27-.5-.05-.07-.06-.09-.4.03l-.18.06c-.11.03-.18.05-.2.07-1.71,1.11-3.44.78-4.91.32-1.37-.44-2.99-.84-4.66-.55-1.42.25-1.6.17-2.29-1.12-.36-.67-1.23-1.07-1.86-.86-.15.05-.28.12-.39.22-.36.32-.49.87-.35,1.52.04.19.1.45.2.58Z"/>
        <path class="cls-3" d="M120.76,68.11c.27-.07.5-.17.76-.34.23-.14.44-.3.63-.47.34-.3.62-.65.85-1.05l.79-1.37.37-.93c.23-.59.59-1.16,1.12-1.78,1.45-1.7,2.42-3.11,3.12-4.58.24-.5.36-.98.37-1.46,0-.8-.23-1.38-.65-1.65-.43-.27-1.05-.23-1.77.11-.54.26-1.02.57-1.41.92-.94.84-1.46,1.93-1.6,3.34-.12,1.23-.29,2.47-.46,3.68l-.15,1.07c-.21,1.53-.82,2.73-1.87,3.67-.14.12-.28.24-.43.35-.09.07-.2.13-.32.2-.13.07-.26.15-.35.23.08.29.5.2,1,.08Z"/>
        <path class="cls-3" d="M122.83,73.12c.07.3.09.3.14.31h.02s.06-.16.09-.24l.04-.13c.22-.77.61-1.43,1.13-1.97l.47-.55.6-.7c.1-.21.25-.4.46-.58.11-.1.23-.19.36-.28l.18-.13c.48-.38.99-.74,1.49-1.1.71-.5,1.44-1.03,2.09-1.61.16-.14.31-.28.46-.43.33-.33.48-.71.42-1.08-.06-.36-.32-.67-.72-.87-.35-.17-.74-.23-1.21-.2-.96.08-1.58-.4-1.73-1.34-.03-.17-.05-.32-.07-.35-.02,0-.04,0-.12.06-.05.05-.1.1-.15.15l-.08.08c-.67.7-1.28,1.43-1.83,2.17l-.9,1.21-.22.99c-.08.36-.18.72-.28,1.07-.1.34-.2.68-.27,1.03-.05.23-.1.46-.15.68-.29,1.26-.55,2.45-.24,3.68l.03.13Z"/>
        <path class="cls-3" d="M132.03,64.44c.85,1.47,2.16,2.39,3.89,2.73.59.1,1.18-.02,1.83-.18.5-.12.99-.27,1.48-.42,1.44-.44,2.94-.9,4.59-.62.08.01.13,0,.15,0,0-.03,0-.13-.11-.29-.1-.15-.24-.3-.42-.47-2.19-2.04-4.63-3.02-7.47-3.02-.67,0-1.42,0-2.07-.28-1.39-.6-2.83-.59-4.35-.58-.46,0-.92,0-1.38,0-.14,0-.18,0-.18.01,0,.02.02.07.11.18.26.35.67.6,1.2.74,1.18.32,2.05,1.02,2.73,2.21Z"/>
        <path class="cls-3" d="M139.19,67.74c-2.15.55-4.61.97-6.74-.97l-.08.57c-.08.55-.16,1.12-.17,1.67-.04,1.54-.08,3.04.37,4.43.08.24.13.36.17.42.06-.03.15-.1.32-.25l.12-.11.54-.51.12.73c.09.55.35.73,1.07.73,1.52,0,2.87-.59,4.37-1.93l.11-.1c.57-.52.91-1.07,1.04-1.69.03-.15.02-.28-.03-.35-.05-.07-.16-.1-.25-.11l-.18-.02c-.14-.02-.46-.06-.53,0-.14.87-.47,1.51-1.03,2.01-.57.5-1.3.8-1.93,1.02-.25.1-.55.22-.82.07-.11-.06-.26-.18-.32-.44-.08-.34.08-.54.17-.63.21-.18.49-.18.68-.17.52,0,.88-.12,1.21-.41.18-.16.35-.37.51-.65-.52.22-1.1.35-1.82,0l-.63-.31.59-.38c2.01-1.3,4.09-1.92,6.36-1.9.28,0,.59.08.87.22.12.06.19.07.21.07,0-.01.03-.09.05-.3.06-.6-.4-1.12-1.09-1.23-.9-.14-1.76.1-2.67.35-.19.05-.39.11-.58.16Z"/>
        <path class="cls-3" d="M146.2,64.71c.29.07.5.06.61-.04.08-.07.14-.2.17-.37.1-.49.32-.88.65-1.18.14-.12.3-.23.48-.33.12-.06.23-.14.32-.22.29-.25.47-.6.53-1.03.14-.87.32-1.59.58-2.26.05-.14.04-.2.04-.22,0,0-.06-.02-.19,0-1.19.13-2.4.01-3.41-.32-1.38-.16-2.6.18-3.74,1.07-.97.76-1.76,1.27-2.59,1.66-.16.08-.26.12-.31.16.04.07.25.12.33.14.9.2,1.77.62,2.75,1.32.99.72,2.15,1.22,3.77,1.63Z"/>
        <path class="cls-3" d="M150.01,57.83l-.1-.12s-.02-.08-.16-.11c-.15-.04-.31-.08-.46-.08-1.61-.03-3-.69-4.25-2.01-.79-.84-1.67-.87-2.53-.1-.07.06-.14.13-.21.2-.27.29-.53.58-.79.88-.35.4-.69.79-1.06,1.16-.16.16-.32.31-.48.45-2.03,1.8-4.22,2.52-6.72,2.2l-.19-.03c-.12-.02-.37-.06-.44-.03.08.05.42.15.57.2,2.2.68,4.1.64,5.88-.1,1.09-.45,2.16-1.07,3.26-1.9,1.21-.9,2.53-1.13,4.02-.68.19.06.39.11.57.15l.23.06c.82.08,1.63-.05,2.49-.2l.13-.02c.1-.02.13-.04.14-.05l.1.11s0,0,0,0Z"/>
        <path class="cls-3" d="M129.98,68.48c-.09.08-.19.16-.3.23l-1.07,1.13c-.1.16-.25.36-.41.57-.49.66-.96,1.29-1.09,2.08-.14.86.05,1.45.61,1.84.89.62,1.78.7,2.63.24.13-.07.24-.15.34-.23.38-.34.55-.84.49-1.49-.08-.83-.12-1.69-.13-2.53,0-.57.06-1.14.13-1.68.09-.71.17-1.39.1-2.06,0-.01,0-.03,0-.04,0,.02-.02.03-.03.05l-.21.38c-.29.53-.58,1.09-1.07,1.52Z"/>
      </g>
      <g id="ROSE-4" data-name="ROSE">
        <path class="cls-1" d="M154.96,39.5l.07-.04.23-.11c.7-.34.98-.79.89-1.44-.1-.31-.25-.49-.5-.56-.13-.03-.23-.06-.3-.07,0,.07-.01.19-.02.3v.08c0,.28-.02.6-.27.86-.54.55-1.12.81-1.77.81-.11,0-.21,0-.32-.02l-.58.05h-.08c.47.07.93.13,1.4.19l.46.06.36-.05.44-.06Z"/>
        <path class="cls-1" d="M147.27,45.91c.02-.41.11-.8.21-1.18.14-.53.36-.91.71-1.22.43-.38.95-.54,1.45-.7l.23-.07c.06-.02.1-.04.13-.05-.35-.33-.65-.51-1-.59-.65-.15-1.11-.4-1.44-.78-.68-.79-1.71-1.25-2.82-1.25-.69,0-1.35.17-1.93.49-.35.2-.67.31-.99.34-.25.03-.26.05-.27.1,0,.04,0,.05.16.12l.09.04c.05.02.08.04.1.04,1.01.15,1.55.85,1.94,1.51.37.62.84,1.31,1.56,1.76.62.38.65.47.48,1.18-.09.37.1.81.41.94.07.03.15.05.22.05.24,0,.47-.16.64-.45.05-.08.11-.2.12-.28Z"/>
        <path class="cls-1" d="M155.34,42.17c-.13-.07-.25-.1-.4-.13-.13-.02-.26-.03-.39-.03-.23,0-.45.04-.67.11l-.75.25-.45.23c-.28.14-.61.24-1.01.29-1.11.15-1.94.36-2.69.67-.26.11-.46.25-.62.42-.27.3-.38.59-.31.84.07.24.32.44.7.55.29.08.57.13.83.13.63,0,1.19-.23,1.71-.71.46-.42.93-.83,1.4-1.22l.41-.35c.59-.5,1.21-.75,1.92-.75.09,0,.18,0,.28.01.06,0,.12.02.19.03.07.02.15.03.21.03.07-.14-.12-.24-.35-.36Z"/>
        <path class="cls-1" d="M156.24,39.61c.07-.13.07-.14.05-.16h0s-.08.03-.11.05l-.06.04c-.34.21-.7.33-1.08.36l-.36.05-.46.06c-.11.04-.23.06-.37.06-.08,0-.15,0-.23-.01h-.11c-.31-.03-.62-.06-.92-.09-.43-.05-.88-.1-1.32-.1-.11,0-.21,0-.32,0-.23.01-.41.11-.51.26-.1.15-.1.36-.02.57.07.18.2.33.39.47.39.29.46.67.2,1.08-.05.07-.09.13-.09.16,0,0,.01.02.06.02.03,0,.07,0,.1,0h.06c.48-.05.96-.11,1.41-.21l.74-.16.41-.3c.15-.11.31-.21.46-.3.15-.09.3-.19.44-.29.09-.07.19-.14.28-.21.53-.38,1.02-.73,1.31-1.3l.03-.06Z"/>
        <path class="cls-1" d="M149.9,39.79c.17-.83-.01-1.61-.54-2.32-.19-.23-.45-.38-.75-.54-.23-.12-.46-.23-.69-.33-.69-.32-1.4-.64-1.93-1.3-.03-.03-.05-.05-.06-.05-.01.01-.04.05-.06.14-.01.09-.01.19,0,.32.14,1.49.73,2.67,1.79,3.61.25.22.53.47.68.79.32.69.86,1.16,1.43,1.67.17.15.35.3.51.46.05.05.07.05.07.06,0,0,.02-.03.02-.1.02-.22-.05-.44-.2-.68-.34-.51-.43-1.06-.29-1.74Z"/>
        <path class="cls-1" d="M148.32,36.17c.99.51,2.05,1.17,2.2,2.6l.22-.19c.21-.18.43-.37.62-.57.53-.56,1.04-1.11,1.34-1.78.05-.11.07-.18.08-.21-.03,0-.09-.01-.2-.01h-.08s-.37,0-.37,0l.2-.31c.15-.24.11-.39-.16-.63-.57-.51-1.27-.73-2.27-.73h-.07c-.38,0-.7.1-.95.28-.06.05-.1.1-.11.14,0,.04.03.09.06.12l.06.07c.05.05.15.18.2.18.34-.28.68-.41,1.05-.41.38,0,.75.13,1.06.26.13.05.28.1.33.25.02.06.04.15-.03.27-.09.15-.21.18-.27.18-.14,0-.24-.1-.31-.16-.19-.18-.37-.25-.59-.25-.12,0-.26.02-.41.07.27.09.53.24.68.61l.13.33-.35-.05c-1.19-.18-2.17-.64-3.01-1.41-.1-.1-.19-.23-.25-.37-.03-.06-.05-.09-.05-.1,0,0-.04.02-.12.1-.22.21-.22.55,0,.82.29.35.69.55,1.11.76.09.04.18.09.27.13Z"/>
        <path class="cls-1" d="M144.69,34.97c-.08-.12-.17-.19-.24-.19-.05,0-.12.03-.19.08-.2.15-.41.22-.64.22-.09,0-.19-.01-.29-.04-.07-.02-.13-.02-.19-.02-.19,0-.37.07-.54.21-.34.28-.65.49-.97.65-.07.03-.08.06-.09.07,0,0,.02.03.07.06.49.35.9.79,1.17,1.26.46.52,1.03.8,1.76.84.61.04,1.08.11,1.52.24.09.03.14.04.17.04,0-.04-.06-.13-.08-.16-.27-.38-.46-.82-.59-1.41-.13-.6-.4-1.17-.87-1.86Z"/>
        <path class="cls-1" d="M140.98,36.28v.08s-.02.04.02.09c.04.06.09.13.15.18.59.55.89,1.26.92,2.16.02.58.33.88.91.88.05,0,.09,0,.14,0,.2-.02.39-.04.59-.07.26-.03.52-.07.78-.08.11,0,.22,0,.33,0,1.36,0,2.42.46,3.24,1.41l.06.07s.12.15.15.16c-.01-.04-.11-.2-.15-.26-.59-.99-1.32-1.6-2.23-1.92-.56-.19-1.17-.32-1.85-.38-.75-.07-1.32-.42-1.73-1.08-.05-.09-.11-.17-.16-.25l-.07-.1c-.28-.3-.63-.52-1-.76l-.05-.03s-.06-.03-.07-.03v-.08s0,0,0,0Z"/>
        <path class="cls-1" d="M152.01,38.96c.06,0,.12,0,.19.01l.77-.07c.09-.03.22-.05.34-.08.4-.08.79-.16,1.1-.42.34-.28.46-.56.38-.89-.13-.53-.43-.85-.9-.97-.07-.02-.14-.03-.21-.03-.26,0-.49.13-.68.39-.25.34-.52.67-.79.99-.19.22-.4.4-.61.59-.27.24-.53.46-.72.74,0,0,0,.01-.01.02,0,0,.02,0,.03,0l.2-.07c.28-.1.58-.21.91-.21Z"/>
      </g>
      <g id="VAGUES">
        <path class="cls-6" d="M-32.6,198.43l16.53-8.47c5.5-2.82,14.5-2.82,20,0l6.53,3.35c5.5,2.82,14.5,2.82,20,0l6.53-3.35c5.5-2.82,14.5-2.82,20,0l6.53,3.35c5.5,2.82,14.5,2.82,20,0l6.53-3.35c5.5-2.82,14.5-2.82,20,0l6.53,3.35c5.5,2.82,14.5,2.82,20,0l6.53-3.35c5.5-2.82,14.5-2.82,20,0l6.53,3.35c5.5,2.82,14.5,2.82,20,0l6.53-3.35c5.5-2.82,14.5-2.82,20,0l6.53,3.35c5.5,2.82,14.5,2.82,20,0l6.53-3.35c5.5-2.82,14.5-2.82,20,0l6.53,3.35c5.5,2.82,14.5,2.82,20,0l6.53-3.35c5.5-2.82,14.5-2.82,20,0l16.53,8.47"/>
        <path class="cls-6" d="M-32.6,187.09l16.53-8.47c5.5-2.82,14.5-2.82,20,0l6.53,3.35c5.5,2.82,14.5,2.82,20,0l6.53-3.35c5.5-2.82,14.5-2.82,20,0l6.53,3.35c5.5,2.82,14.5,2.82,20,0l6.53-3.35c5.5-2.82,14.5-2.82,20,0l6.53,3.35c5.5,2.82,14.5,2.82,20,0l6.53-3.35c5.5-2.82,14.5-2.82,20,0l6.53,3.35c5.5,2.82,14.5,2.82,20,0l6.53-3.35c5.5-2.82,14.5-2.82,20,0l6.53,3.35c5.5,2.82,14.5,2.82,20,0l6.53-3.35c5.5-2.82,14.5-2.82,20,0l6.53,3.35c5.5,2.82,14.5,2.82,20,0l6.53-3.35c5.5-2.82,14.5-2.82,20,0l16.53,8.47"/>
        <path class="cls-6" d="M-32.6,175.75l16.53-8.47c5.5-2.82,14.5-2.82,20,0l6.53,3.35c5.5,2.82,14.5,2.82,20,0l6.53-3.35c5.5-2.82,14.5-2.82,20,0l6.53,3.35c5.5,2.82,14.5,2.82,20,0l6.53-3.35c5.5-2.82,14.5-2.82,20,0l6.53,3.35c5.5,2.82,14.5,2.82,20,0l6.53-3.35c5.5-2.82,14.5-2.82,20,0l6.53,3.35c5.5,2.82,14.5,2.82,20,0l6.53-3.35c5.5-2.82,14.5-2.82,20,0l6.53,3.35c5.5,2.82,14.5,2.82,20,0l6.53-3.35c5.5-2.82,14.5-2.82,20,0l6.53,3.35c5.5,2.82,14.5,2.82,20,0l6.53-3.35c5.5-2.82,14.5-2.82,20,0l16.53,8.47"/>
        <path class="cls-6" d="M-32.6,164.41l16.53-8.47c5.5-2.82,14.5-2.82,20,0l6.53,3.35c5.5,2.82,14.5,2.82,20,0l6.53-3.35c5.5-2.82,14.5-2.82,20,0l6.53,3.35c5.5,2.82,14.5,2.82,20,0l6.53-3.35c5.5-2.82,14.5-2.82,20,0l6.53,3.35c5.5,2.82,14.5,2.82,20,0l6.53-3.35c5.5-2.82,14.5-2.82,20,0l6.53,3.35c5.5,2.82,14.5,2.82,20,0l6.53-3.35c5.5-2.82,14.5-2.82,20,0l6.53,3.35c5.5,2.82,14.5,2.82,20,0l6.53-3.35c5.5-2.82,14.5-2.82,20,0l6.53,3.35c5.5,2.82,14.5,2.82,20,0l6.53-3.35c5.5-2.82,14.5-2.82,20,0l16.53,8.47"/>
      </g>
    </g>
    <g class="cls-17">
      <g id="CHATEAU">
        <path class="cls-23" d="M215.24,117.37c2.29-2.37,11.95-3.45,14.99-1.1.34,15.96.46,20.65,4.29,29.52.4,2.29-8.81,2.86-12.07,2.05-6.35-3.64-7.86-15.26-7.2-30.46Z"/>
        <path class="cls-23" d="M178.22,93.63l4.3,1.3,4.06,6.69h1.49l5.38,8.62,3.05.61c1.7,19.66,2.27,25.95,5.26,39.12l-17.98,2.38c-5.95-15.51-6.73-36.14-5.56-58.73Z"/>
        <path class="cls-23" d="M223.27,149.14c-7.46-11.99-7.28-8.39-7.63-38.9-3.72-3.3-14.87-2.33-19.14.61,0,27.09-.36,26.98,5.26,39.12,3.47,2.38,21.03,1.75,21.51-.84Z"/>
        <path class="cls-23" d="M111.88,113.58l16.02-9.21c1.41,19.22,1.49,34.21-.86,46.27l-16.93-.92,1.77-36.15Z"/>
        <path class="cls-23" d="M98.44,113.98c1.71-2.15,11.1-2.29,15.16,0-.06,20.76-3.49,35.75-3.49,35.75-2.32,2.12-17.47,2.49-16.47-.4,5.43-7.32,5.2-26.3,4.8-35.35Z"/>
        <path class="cls-23" d="M146.8,100.02l1.11,50.11,4.27.51v-55.12c-.52-3.54-5.61-2.25-5.39,4.5Z"/>
        <path class="cls-23" d="M127.61,92.87c.13,25.19,2.21,48.93-6.18,59.72-1.32,3.55,22.59,7.15,28.43,2.69-.9-11.06-1.53-37.8-1.94-63.89-5.83-4.44-16.47-3.83-20.31,1.49Z"/>
        <path class="cls-23" d="M147.63,99.11c-.69-3.03,2.23-6.29,3.43-2.58-1.32-4.46-6.58-3.43-8.24,2.18l4.8.4Z"/>
        <path class="cls-23" d="M142.82,89.32l7.95-4.06v10.47c-1.4-3.06-6.32-1.69-7.95,2.97v-9.38Z"/>
        <path class="cls-23" d="M187.73,155.16c-8.87-10.52-8.27-51.76-8.35-75.27-6.29-7.66-26.66-5.83-28.6,5.38.46,20.65,1.89,48.33-2.86,70.58-.29,5.43,40.44,4.46,39.81-.69Z"/>
        <path class="cls-23" d="M153.75,79.89c-.63-2.77,6.02-4.18,7.86-1.6-.18.72-.57,1.49-1.14,2.29-.29.35-.72.59-1.3.72-.12.53-.38,1.75-.38,1.75,0,0-.29,2.03-1.52,2.24s-1.72-.46-2.18-1.4c-.45-.93-1.44-3.93-1.33-4Z"/>
      </g>
      <g id="DETAILS">
        <path class="cls-16" d="M228.62,137.02c.76.26,1.56.04,2.41.13-.09-.45-.16-.9-.22-1.35-.18.3-.41.34-.71.36-.94.08-1.87.07-2.79-.05-.39-.05-.67.06-.94.28,1.46.02,2.92.04,4.38.07.04,0,.07.09.16.2-.74.42-1.59-.02-2.29.36Z"/>
        <path class="cls-16" d="M234.29,146.15c-1.43-2.77-2.6-5.7-3.22-8.74-.32.17-.67.04-.95.14-.75.27-1.77-.64-2.29.53-.19-.49-.75.15-.99-.34-.09-.19-.31-.38-.6-.39-.14-.13-.27-.27-.4-.4.04-.18-.19-.41.08-.57-.14.12-.3.14-.48.07,0,0,.03,0,.03,0-1.78-.05-1.68-1.61-2.25-2.71,1.04-.02,1.97-.38,2.93-.12,1.06-.22,2.18-.02,3.23-.46-3-.13-6.01-.12-9.01-.14-.42,0-.99.11-1.06-.6-.03-.03-.06-.06-.09-.09-.6-.33-.56-.9-.59-1.47-.03-.72-.19-1.34-1.21-1.13-.56.11-1.16.02-1.74.02.37-.39.77-.5,1.21-.53,3.79-.29,7.58-.23,11.38-.2.62,0,1.25.01,1.87.02-.02-.65-.06-1.3-.04-1.94.02-.49-.15-.69-.63-.68-.76.01-1.52,0-2.27,0,.22.3.2.72.31,1.1.37,1.28-.84.44-1.12.84-.17.25-.23.07-.26-.09-.09-.39-.2-.33-.39-.05-.1.15-.02.47-.42.35-.35-.1-.27-.34-.34-.57-.23-.71.33-.76.74-.97.27-.14.8-.07.78-.42-.02-.49-.54-.37-.83-.29-.92.25-1.81-.02-2.71-.02-1.94,0-3.88.11-5.82.17-.45.01-1.02-.14-1.31.18-.4.44-.83.32-1.27.31-.44,0-.87-.09-1.31-.12-.63-.04-1.12.09-1.03.91.03.24,0,.51-.07.74-.27.81.17.95.81.92.12.8-.75.13-.88.61,1.2.11,2.4.21,3.62.32.18.7.02,1.04-.87.97-1.98-.16-3.97-.26-5.96-.32-1.69-.05-3.37-.04-5.06-.02-.62,0-.9-.12-.85-.84.07-1,0-2.01,0-3.01-.01-.9-.38-1.25-1.25-1.24-.83.01-1.06.48-.99,1.23.03.34.03.69.02,1.03-.03.9.13,1.81-.14,2.69-.04-1.06-.03-2.12-.04-3.18,0-1.05-.16-1.16-1.22-1.1-.53.03-1.12.25-1.75-.25,1.15-.2,2.14-.38,3.13-.55-.98-.43-.59-1.38-.9-2.16-.04.57-.07.99-.1,1.49-.36-.54-.05-1.1-.25-1.59-.09-.23-.07-.24,1.1-.59.02,0,.01-.1.02-.17-.99.1-1.98.21-2.97.3-.22.02-.64.07-.52-.26.16-.41.17-1,.93-1.01.88-.02,1.75-.25,2.64-.39-.13-.28-.44-.04-.48-.34.34-.19,1.07.08.99-.53-.07-.49-.77-.08-1.21-.42.67-.04.74-.54.91-.92-1.1-.55-2.33-.55-3.74-.85,1.12-.49,2.15-.57,3.18-.82-.4-.26-.82.03-1.24-.21.48-.14.87-.26,1.43-.42-.53-.14-.9.16-1.26-.14.26-.14.49-.26.72-.39-.38-.06-.56-.61-1.08-.39-.27.12-.61.07-1.1.12,1.04-.57,2.06-.43,3.05-.82-.31-.05-.45-.33-.77-.04-.16.14-.67.53-.86-.27-.09-.37-.84-.1-1.29-.18-.14-.03-.33.04-.38-.17-.03-.11-.05-.27.11-.3.6-.11.92-.91,1.74-.6.27.1,1.13-.03.95-.6-.23-.74.26-.54.57-.67-1.36-.01-2.64-.42-3.95-.61-.54-.08-.69.04-.76.51-.05.31.22.83-.46.84-.07,0-.14.53.11.45.48-.15.36.16.38.35.12,1.88.28,3.75.34,5.63.11,3.35.16,6.69.24,10.04.01.54.25.8.82.72.65-.09,1.31-.13,1.96-.22.33-.04.61-.14.63.37.02.45-.22.51-.57.52-.34.01-.69.07-1.03.09-.59.04-1.34-.14-1.74.15-.5.37-.12,1.16-.1,1.76.08,2.24-.08,4.52.54,6.7.24.83.01,1.17-.75,1.11-1.01-.07-1.86.24-2.63.82-.25-.22-.16-1.04-.71-.54-.35.32-.62.36-.94.21-.37-.18-.78.48-1.09-.09.05.81-.51.27-.76.3-.43.05-.85.14-1.06.5-.24.42-.5.48-.91.32-.24-.09-.48-.26-.91-.09.4.15.7.22.95.36.65.39,1.49.33,2.04,1,.45.55.11,1.3.59,1.8-.1.07-.2.14-.3.22-.11.02-.25.01-.18.19.27.07.51.19.66.44.02.28.15.51.45.47.66-.09,1.08.34,1.56.65,0-.71.86-.72,1-1.42.16.39.3.64-.09.82-.2.09-.44.23-.05.42.16.08.28.27.11.35-.28.14-.62.23-.94.23-.14,0-.1-.26-.02-.4-.55.33-1.11.54-1.7.14-.36-.24-.7-.37-1.09-.1,0,.07,0,.12,0,.15-.23.33-.28.69-.18,1.08.22.15.48.17.73.17.62-.05.54-.22.07-.45-.18-.09-.31-.19-.14-.42.2-.28.27-.02.41.06.37.2,1.26.04.4.9-.38.38.56.15.56.56-.26.27-.58.04-.86.1-.58.13-1.34-.06-1.51.87-.08.44-.46.43-.82.27l.02.02c-.46-.14-.72.43-1.21.4.61-1.16.37-3.19-.36-3.54.18-.44.61-.47,1.05-.51-.3-.33-.77.04-.88-.35-.12-.44.44-.44.72-.69-.88-.3-1.34-1.37-2.4-.95-.03.01-.15-.07-.15-.08.2-.7-.74-.69-.78-1.34-.05-.74-.74-.69-1.34-.69-.71,0-.63.45-.61.89.01.21.11.53-.16.55-.84.04-.61.53-.44.96.29.74-.14.9-.7.84-.6-.07-1.17.04-1.75.13-3.22.47-6.46.62-9.7.49-3.81-.15-7.62,0-11.41-.44-.02.23.74.26.16.43-.5.15-.98.21-1.32.65-.03.04-.2.04-.26,0-.94-.62-1.02-.63-1.8-.26.33.25.81,0,1.13.32-.75.38-.78.4-.33,1.04.2.29.41.61.39.9-.08,1.07.36,2.11.16,3.18-.07.39-.13.8.5.71.19-.03.31.04.28.25-.04.35-.23.16-.4.12-.22-.06-.37,0-.37.26,0,1.04,0,2.08,0,3.16.41-.23.1-.71.4-.87.83.8-.76,1.23-.28,2.08.1-.27.15-.72.44-.34.43.56.53.02.67-.16.11-.14-.05-.46.38-.45-.15.53.33.74.62.96.23.18.09-.46.42-.45.38.04-.37.65.32.6.45-.04,1.02-.44.96-.52-.65-.92-.31-1.92-.29-2.87.04-1.81.12-3.62-.13-5.43-.09-.68.15-1.23,1.05-1.34.85-.11,1.31.23,1.59.96.33-.28.02-.63.41-.95-.23.51.52.65.22.98-.34.38-.21.75-.24,1.13-.04.49.02,1.01-.41,1.62v-2.25c-.46.86-.19,1.77-.35,2.63.24.12.53-.42.51-.08-.05.9.8,1.53.59,2.43-.24,1.04.09,2.07.07,3.27-.85-1.27-.26-2.54-.55-3.71-.13,1.02-.14,2.03-.13,3.05,0,.17.14.37-.17.42-.13.02-.32.25-.39.03-.17-.54-1.05-.69-.73-1.48-.43.59-.66,1.37-.48,1.88.19.53,1.04.52,1.68.52.46,0,.9.04,1.36.23.57.24,1.22.17,1.85.13,1.12-.06,2.24-.25,3.38-.1.38.05.59.38,1.01.33,1.59-.17,3.2-.2,4.78-.44.13-.08.28-.15.44-.16.4-.04.79-.18,1.19-.24.43-.07.86-.07,1.3-.09.76-.04,1.53-.1,2.29-.21,1.11-.16,2.22-.4,3.3-.73.71-.42,1.27-.84,2.08-1.08.47-.14.54-.19.64-.65.05-.24.25-.65.23-.88.02.27-.36-.17-.47-.31-.11-.13-.19-.29-.25-.45-.1-.11-.21-.21-.29-.33-.32-.41-.46-.9-.72-1.34-.12-.2-.04-.44.15-.56.14-.09.33-.06.46.04.55-.17,1.13-.11,1.7-.11.97-.15,1.92-.41,2.89-.5,1.32-.12,2.6-.22,3.9-.52.85-.2,1.79-.35,2.63-.23.06-.13.17-.23.35-.25,1.12-.08,2.21-.36,3.33-.43.56-.04.95.17,1.41.46.08.05.17.11.25.16,1.61-.07,3.2-.02,4.81.27-.48.11-.97,0-1.44.02-.32,0-.64.15-.96.25.16.03.32.05.37.05.69,0,1.37-.03,2.06.03.87.07,1.82.12,2.75.22.34-.35.76-.6,1.2-.41.68.3,1.34.26,2,.12.3-.07.65.02.78.1.11.06.22.1.34.14,0,0,0,0,0,0,1.73.12,3.55-.46,5.31-.79.54-.1,1.34-.05,1.84-.28.32-.14.6-.33.88-.53.06-.08.14-.15.21-.22,0-.02.01-.04.01-.04,0-.02,0-.04,0-.06,0-.06,0-.12-.01-.18,0-.07-.01-.14-.02-.22-.03-.05-.06-.09-.08-.15-.03-.05-.04-.1-.04-.16-.06-.04-.13-.09-.2-.12h.01c-.2-.07-.3-.27-.26-.48.05-.21.3-.35.5-.28.15.05.29.13.43.23,0,0,0,0,0,0,.49.03.98.16,1.47.18.53.02,1.06-.02,1.59-.03.06,0,.11.01.16.04,2.12-.07,4.94-.28,6.99-1.2.29-.32.61-.57.94-.76,0,0,0-.02,0-.03,0-.06.01-.09.03-.12ZM213.54,129.79c-.29.13-.41-.13-.54-.33,0,0,0,0,0,0-.31-.62-.27-1.27-.13-1.94.06.67.82,1.05.69,1.78-.03.17.19.39-.03.49ZM197.56,113.02c.14-.36.14-.02.26.03.51.24.28-.6.76-.53.11.2.3.48,0,.67-.25.16-.58.25-.88.25-.28,0-.19-.31-.14-.43ZM193.87,144.2c-.04.12-.14.16-.27.09-.64.36-1.18-.15-1.78-.23.68-.26,1.39-.18,2.08-.21-.04.06-.08.11-.13.17.03.06.11.13.1.18ZM168.55,147.35h7.57c-2.54.17-5.06.46-7.57,0ZM176.83,154.81c-.17-.77-.73-1.48-.35-2.52.7.88.2,1.74.35,2.52ZM177.61,148.67c.41.22.84.02,1.27.05.55.04.56.41.61.76.08.51-.34.29-.57.35-.15.04-.31.02-.46.03-1.04.02-1.18-.18-.85-1.18ZM178.53,152.12c-.06-.3-.64.28-.57-.37.06-.57.48-.25.67-.41.17.1.5-.11.46.19-.04.27-.3.46-.56.59ZM180.64,150.77c-.08.23-.62.33-.92.68-.22.25-.34-.17-.41-.38-.15-.42-.51-.14-.7-.13-.41.03-.49-.15-.53-.46-.06-.41.3-.43.48-.39.51.12.91-.1,1.36-.25.49-.17.77.1.72.92ZM182.33,148.86c-.33.24.15.99-.08,1.51-.29.05-.06-.71-.59-.39-.12.07-.82.3-.54-.48.09-.25-.36-.29-.64-.08-.27.21-.73.32-.78-.04-.2-1.48-1.19-.81-1.94-.79-.05,0-.1.04-.15.06,0,0,0,0,0,0-.25.06-.34-.05-.32-.3.01-.14.06-.27.2-.24,1.11.24,2.19-.66,3.32-.1.23.11.35-.19.56-.22.38-.05.78-.14,1.02.23.16.25.43.47-.07.84ZM196.06,145.56c-.5.23-1.15-.37-1.73-.59-.1-.04-.06-.37.07-.41.5-.11.64-.39.55-.87-.02-.14,0-.24.25-.09.59.37.43-.31.63-.55.75.97-.53,1.06-.68,1.62,1.05.37,1.28-.3,1.43-1.19.29.63.24,1.58,1.38,1.28-.73.19-1.31.53-1.91.8ZM201.03,127.52c.1,0,.21,0,.31,0,.29.48-.07,1.23.63,1.54-.53.52-.46,1.1-.22,1.72.08.19-.12.17-.22.17-.23,0-.51.12-.5-.32.02-1.04,0-2.08,0-3.12ZM211.83,139.78c-.15.19-.46-.02-.65-.3-.27-.39-.68-.71-.8.15-.02.17-.02.37-.32.36-1.01-.02-2.02-.02-3.04-.03-.03,0-.07-.1-.12-.19.29-.31.71,0,1.03-.21-.23-.45-1.1.08-1.1-.7-.16,1.1-.61-.13-.97.11-.46.3-.45-.32-.32-.39.71-.34-.09-.73.05-1.12.09-.24-.79-.23-.68-.83.01-.05-.17-.02-.19.08-.14.53-.54.27-.85.29-.31.02-.63-.02-.93.05-.2.04-.44.42-.55-.02-.1-.37.34-.21.51-.32.15-.1.39-.07.66-.17-1.31.18-.3-.76-.62-1.07-.29.14-.53.76-.9.3-.29-.37.48-.13.42-.55-.56.03-1.24.38-1.55-.44-.3.16.09.66-.28.68-.57.03-.08-.48-.19-.56-.46-.3-.97-.53-1.48-.8.33-.32,1.53-.07.72-1.11-.08-.1.26-.18.42-.25.65-.29,1.47-.29,1.63-1.29.07-.47.45.03.65,0,2.09-.35,4.18-.03,6.26.06.65.03,1.12.67,1.74.93.29.12.51.32.64-.02.13-.35.23-.34.53-.22.23.09.53.04.2-.33-.05-.05.26-.19.37-.13.29.13-.02.5.27.65.4-.53.73-.8.74.2,0,.51.45.19.65.23.72.15,1.31.11,1.74,1.04.39.83-.28.51-.41.74-.22.38-.28-.64-.42-.03-.09.37.24.27.42.32.09.02.18.06.35.12-.5.26-1.5.16-.84,1.14.02.03-.06.21-.11.22-.36.07-.59.1-.3.58.18.29-.19.04-.24.1-.36.4.19.5.28.81-.58.12-1.1.08-1.58-.3.38.23.47.9,1.18.59.25-.11.73.14.76.49.05.51-.36-.06-.52.14-.57.73-1.69.2-2.28.99ZM215.31,143.58c-.41.26-.79-.34-1.18-.63.65.06,1.27.2,1.93.21.43,0,.4.53.25.97-.2-.48-.25-1.03-1-.54ZM217.82,146.78c-.33.21-.45,0-.48-.28-.05-.52-.34-.26-.58-.19-.37.08-.37-.24-.47-.44-.55-.1-.39-.5-.25-.78.13-.26.34-.54.73-.46.35.07.4.31.38.63,0,.13.1.26.17.4.61-.11.78.38.94.77.11.28-.27.24-.44.35ZM220.13,145.34c-.82.16-.29.61-.17.98-1.39-.62-1.32-.63-1.65-2.03-.08-.32-.41-.77-.84-1.21.27-.03.44-.09.57-.04.39.13.62-.7.83-.3.44.83,1.13,1.52,1.41,2.44.03.11-.04.15-.15.17ZM228.01,138.36c.46,1.01.91,2.02,1.4,3.1-.77-.54-1.09-1.24-1.4-3.1ZM228.81,138.43h2.4c-1.14.35-1.67.34-2.4,0Z"/>
        <path class="cls-16" d="M194.02,143.94s-.05-.06-.08-.09c.05,0,.09,0,.14-.01-.02.03-.04.07-.06.1Z"/>
        <path class="cls-16" d="M103.45,149.19c.29-.09.46-.15.81-.26-.6-.02-1.02-.68-1.05-.55-.29,1.17-.79-.32-1.09.12.08-.62-1.38.4-.81-.76,0,0-.17-.13-.22-.11-.69.3-.93-.36-1.37-.63.8-.09,1.57-.09,2.35-.09.33,0,.67-.22.79.42.03.18.73.91,1.49.73-.21-.38-.04-.78-.26-1.1-.34.11-.67.21-1.01.32-.21-1.54-.22-1.53-1.56-1.73-.32-.05-.64-.22-.74-.52-.1-.31.02-.55.46-.6.12-.01.57-.37.48-.78,0-.04-.15-.09-.23-.08-.29.05-.65-.03-.77.37-.03.11-.1.26-.06.34.11.23-.1.35-.17.28-.34-.32-.9.12-1.16-.37.13.42.1.84.05,1.26-.05-.02-.1-.05-.15-.05-.7-.06-1.19-.55-1.24-1.11-.05-.53.76-.1,1.04-.46-.21-.05-.49-.04-.62-.17-.6-.63-1.09-.25-1.6.11-.05-.28,0-.53.3-.59.58-.12,1.18-.37,1.72.19-.2-.71-.06-1.56-1.09-1.71.44-.43.97-.31,1.3-.18.79.32.76.39,1.24-.27-1.04-.32-2.11-.05-3.21-.2,0,0,0-.02,0-.03-.12.06-.25.11-.38.16-.01.08-.03.16-.05.24-.32,1.34-.86,2.59-1.39,3.85-.11.91-.39,1.79-.88,2.68-.17.31-.35.61-.54.92.01,0,.02-.01.03-.01.08.38-.03.88.55.96.68.09,1.35.3,1.98.48.74.22,1.2-.34,1.89-.25,2.14.28,4.3.06,6.47.03-.51-.18-.79-.62-1.29-.87ZM99.4,145.51c.27-.12.6-.33.8-.03.17.26-.23.33-.39.49-.32.32.42.13.24.47-.33.12-.64.06-.9-.2-.36-.37.35-.42.25-.73Z"/>
        <path class="cls-16" d="M126.01,141.25c-.02-.1-.04-.2-.06-.3-.04.01-.08.02-.14.02-1.15-.04-2.29.14-3.44-.01-1.57-.21-3.16-.21-4.74-.25-.42.08-.85.13-1.27.13-.09,0-.18-.02-.27-.03-.01,0-.02,0-.03.01-.57.08-1.15.01-1.71-.11-.37.02-.74.07-1.11.14-.15.17-.38.19-.76.18-.31.1-.66.19-.91-.03-.02,0-.04,0-.06,0-.04,0-.09.04-.14.07.51.43,1.47.65.62,1.61.4.02.36-.47.9-.45-.77.92-1.71,1.62-1.93,2.81.17-.09.33-.24.41-.21.17.07.05.25.03.39-.1.84-.41,1.55-1.1,2,.09.33.69-.34.48.34-.16.52-.39,1.02-.6,1.56-.26-.39-.62-.64-.58-1.19-.4.4-.29,1.04-.91,1.14.07-.44-.16-.74-.35-1.04-.09-.14-.19-.6-.39-.33-.24.32-.82.31-.81.77.03.98.01,1.13-.69,1.51-.27.15-.05.21-.02.32.05.15.18.26.29.39.41-.07.82-.14,1.23-.21.89-.72,2.1-.89,3.25-.63.07,0,.14-.02.21-.02,1.63,0,3.4-.11,5.12,0,0-.03,0-.05,0-.09.12-.56.57-.49.99-.59-1.38.24-.83-.98-1.24-1.53.39-.04.75-.08,1.12-.12-.43.12-.49-.59-.91-.43-.25.1-.63.39-.69.07-.07-.33-.14-1.1.28-1.09.65.03,1.39-.21,1.88-.04.6.2.81.03,1.13-.29-.16-.1-.31-.21-.47-.31-.13-.11-.25-.28-.46-.13.54-1.19,2.06-1.67,3.26-1.04.19-.27.9-.04.68-.7.48.1.67-.43,1.14-.49.82-.11,1.48-.79,2.37-.79.07,0,.23-.29.19-.38-.16-.33-.01-.47.2-.62ZM117.08,145.62s-.39.06-.41.02c-.1-.25-.16-.52-.18-.79-.02-.24.18-.27.38-.3.63-.1.95.31,1.29.72-.36.1-.87-.31-1.08.34Z"/>
        <path class="cls-16" d="M160.82,81.27c2.57-.45,5.14-.75,7.75-.38,1.11.16,2.21.32,3.41.63-1.07.16-2.02-.64-2.98.11-.38.29-.46.19.05.76-1.75-.23-3.37.07-5,.1-1.78.03-3.43.62-5.09,1.17-.57.19-.22.91-.62,1.29,1.07-.29,2.11-.45,3.11-.73.9-.25,2.07.12,2.66-.83-.05.52.46.31.85.3,2.04-.08,4.07-.05,6.08.39.7.15,1.18.28.84,1.25-.15.42-.31.27-.46.26-1.38-.08-2.75-.15-4.12-.29-1.68-.17-3.35-.08-4.97.36-.57.15-1.07-.11-1.63.05-1.56.43-3,1.13-4.49,1.72-.37.15-.7.46-1.21.17-.3-.17-.58.37-.68.6-.17.39-.45.39-.73.46-.17.04-.28-.11-.31-.28-.09-.41.23-.56.49-.72.34-.22.58-.55.98-.72.79-.34,1.33-.85.74-1.78-1.9.6-2.8,2.54-4.51,3.61-.05-.8-.09-1.51-.15-2.45-.27,1.07-.21,5,.04,6.43.97-.86,1.87-1.73,2.94-2.38,1.71-1.04,3.45-1.93,5.43-2.45,2.01-.53,3.99-1,6.06-1.03,2.44-.04,4.87.08,7.29.41.58.08.98.27.87,1-.06.41-.16.6-.57.43-1.02-.4-2.07-.25-3.11-.24-.08-.18.04-.16.12-.16.09,0,.19.05.28.03.24-.05.57-.09.5-.42-.06-.31-.35-.29-.61-.22-2.17.56-4.42.57-6.61.98-.32.06-.75-.04-1.14-.01-1.31.09-2.56.41-3.74.98-.26.13-.42-.03-.63-.02-1.04.06-1.86.64-2.71,1.09-1.33.72-2.6,1.57-3.67,2.67-.43.44-.78.49-1.34.2-.83-.43-1.73-.69-2.7-.47-.2.05-.49.24-.61-.16-.11-.36.06-.53.36-.64.26-.1.52-.22.79-.29.66-.16.67-.15.5-.85,0-.03-.11-.04-.03-.09.02-.01.06,0,.09,0,.12,0,.29-.04.31.11.04.37.03.75.05,1.12,0,.18,0,.4.25.43.26.03.45-.11.45-.36.01-.61.21-1.14.58-1.62.16-.21.07-.47-.11-.59-.36-.25-.47-.55-.35-.96.06-.2.06-.41-.19-.44-.25-.03-.28.2-.31.38-.02.12-.01.25-.03.37-.03.19-.1.4-.32.41-.33.01-.28-.26-.28-.47,0-.5-.08-.93-.74-.59-.17.08-.35.12-.2.46.1.21.17.86-.41.82-.41-.02-.39-.49-.4-.81,0-.23-.23-.54.24-.68.47-.14.19-.65.24-.95.05-.32-.43.27-.6-.21.29-.45.88-.58,1.36-.87.46-.27.92-.54,1.4-.76.72-.33,1.27-.74,1.39-1.61.06-.47.38-.85.75-1.16-.28.57-.26,1.19-.35,1.83,1.25-.69,1.85-2.02,3.07-3.06-.07.69-.6.72-.57,1.13q.71-.22,1.29.81c.75-.49-.24-1.33.35-1.93.07.43.13.77.19,1.11.05.25.16.4.45.32.25-.07.37-.16.26-.46-.18-.51-.05-1.09-.31-1.57-.4-.02-.61.44-1.05.24,1.18-1.25,2.65-.99,4.11-.84-1.53-.77-2.98-.44-4.41.26.33-.22.31-.55.39-.85h-.02c.08.14.07.35.36.28.67-.17.84-.6.7-1.22h-.03c.24.82.86.66,1.46.6.34-.03.73-.04,1.01.11.69.36,1.05.09,1.32-.51h-.02c-.18.56-.33,1.12.47,1.37.25.08-.21.85.49.53ZM166.15,84.65c0,.08,0,.15,0,.23,1.3.12,2.61.26,3.91.35.21.02.56.2.66-.21.11-.47-.24-.56-.57-.65-1.38-.36-2.68.17-4.02.27ZM157.58,81.83c-.18-.29.2-.66-.13-.87-.13-.09-.43,0-.62.08-.34.15-.24.5-.19.74.09.46-.41,1.26.31,1.33.91.09.32-.87.63-1.27ZM157.8,82.62c.01.21-.19.51.24.56.29.03.48-.03.53-.36.07-.4.17-.79.25-1.19.07-.38-.21-.49-.49-.56-.39-.1-.37.17-.39.44-.03.37-.1.74-.15,1.12ZM157.21,85.37c.06-.33-.16-.58-.17-.82-.02-.48-.57-.29-.66-.63-.18.27-.1.5-.04.8.1.6.48.56.87.65Z"/>
        <path class="cls-16" d="M128.22,144.61c-.43-.08-.86-.16-1.27-.3-.37-.13-.69-.36-1.05-.5-.02,0-.03-.02-.04-.03-.03.09-.05.19-.05.34,0,.16-.16.31-.33.18-.36-.3-.19.14-.19.14.33.14.35.6.9.6.82,0,1.66.22,2.47.46.49.15.76.18.75-.42,0-.11.02-.18.06-.23-.41-.07-.82-.15-1.23-.23Z"/>
        <path class="cls-16" d="M143.03,154.28c-.26-.21,0-.46-.01-.69-.03-.52.23-1.02.09-1.56-.33.1-.02.72-.53.6-.14-.03-.25-.16-.38-.24.63-.41.07-1.31.79-1.8-.06.42-.06.77.18,1.16q.22-2.09,1.13-2.23c-.81-.12-.8-.11-.72-.94.02-.19-.05-.39.01-.56.38-1.02.12-1.56-.99-1.39.16-.26.32-.52.39-.63-1.11-.69-2.41-.82-3.8-.43.03-.11.07-.17.12-.22-.95.08-1.9.02-2.86-.03-.18,0-.37-.02-.56-.03-.01,0-.02,0-.04,0-1.74-.04-3.49-.05-5.22-.27-.12-.02-.25-.04-.37-.06-.16.58.46.73.66,1.11.18.36-.34.69-.15,1.16.4-.34.24-.96.96-1.29-.45.62,0,.94.04,1.3.04.46-.22.94-.35,1.4.27.19.3-.23.51-.12.19.29-.33.71.19.99.62.34.74-.36,1.18-.57-.15.65-.32,1.19-.38,1.74-.1.82-.49,1.21-1.33,1.23-.22,0-.74.03-.65.32.4,1.16-.39,1.27-1.15,1.46-.11.03-.15.19,0,.37.19-.48.43-.38.67-.05.05.07.08.16.12.25.02-.02.03-.05.05-.06q.64-.23.93.3c.61,1.09,2.02,1.3,2.87.42.2.23-.18.55.12.74q.63-.35.53-.52c-.18-.33-.18-.35.12-.37.49-.03.86-.07,1.15-.65.25-.49.82-1.04,1.7-.56-.24.22-.96.2-.26.66.38.25.23.52-.3.56.41.26.92,0,1.08.44.16.43.4.37.7.25.71-.28,1.43-.19,2.18-.14-.12.28-.5.08-.52.38,0,.13.14.27.24.22.93-.44.56.32.62.67.03.17-.14.42.13.46.33.04.28-.28.3-.47.18-1.32.17-1.33-1.13-1.65-.15-.04-.29-.09-.48-.16.31-.48.59-.91.86-1.34.14.26.1.44.12.62.02.16-.38.41.09.48.39.05.18-.22.24-.38.16-.46.19-1.01.68-1.35.37.85-.14,1.61.06,2.44-.27-.93.9-.54.97-1.14-.32-.19-.37.39-.63.18ZM135.98,152.93c-.19.15.09.74-.38.44-.22-.14-.25-.5-.17-.81.07-.24.12-.49.14-.73.05-1.08-.16-1.21-1.14-.76-.23.11-.5.35-.76.06-.24-.27.08-.44.14-.66.23-.86.46-1.73.65-2.6.16-.76,1.03-1.52,1.77-1.28.58.18.6-.18.86-.75,0,.86.76,1.18.25,1.94.55-.24.23-1.15,1.03-.89.19.06.31.15.16.28-.87.8-.42,1.58.08,2.37-.45.12-.75.12-.83-.37-.5.51.42.64.28,1.09-.04.13.13-.03.16-.1.26-.57.57-.22.93-.1-1.08,1-2.07,2-3.16,2.87ZM141.91,146.2c-.51-.13.28.48-.23.4-.45-.07-.91-.05-1.43-.08.44-.9,1.15-.4,1.72-.42.15,0-.02.11-.06.1Z"/>
        <path class="cls-16" d="M155.06,80.12s.02,0,.02,0c-.42-.25-.96-1.39-1.12.17-.02.15-.19-.14-.32-.17.11-1.26.95-2.52,2.25-2.66,2.72-.29,5.2-1.52,7.88-1.89,3.56-.5,7.11-.39,10.52.92,1.79.69,3.17,2.02,4.55,3.3.4.36.31.97.19,1.62-.37-.31-.67-.56-.97-.82-.7.96.59.69.68,1.16.25-.13.39-.03.32.22-.4,1.36.33,2.67.17,4.16-.65-.73-.21-1.64-.59-2.31-.4.07-.2.43-.37.6-.43-.81-1.08-1.26-2.02-1.44-.65-.13-.26-.93-.46-1.42-.26-.63-.46-1.07-1.17-.94-.46.08-1-.77-1.39.12-.09.2-.09-.02-.11-.06-.47-1.01-1.25-1.39-2.34-1.16h0c-.18-.31-.27-.7-.73-.77-.28-.04-.6-.11-.31-.54.03-.04-.24-.35-.42-.46-1.09-.66-2.33-.8-3.55-.76-.53.02-1.01-.4-1.66-.05.63.11.52.91,1.27.96-.43.23-.79.17-1.14.16-.16,0-.34.05-.31.25.03.19.3.25.36.19.44-.47,1.35.36,1.61-.59.03-.12.39.02.33.13-.27.56.27.8.43,1.24-.3-.27-.6-.34-.96-.26-.87.18-1.74.35-2.62.48-.6.09-.34.57-.42.81-.5-1.03-1.23-.15-1.85-.17.17-.47.41-.93.39-1.45-.01-.29-.18-.57-.46-.63-.25-.05-.27.28-.38.45-.18.27-.2.64-.49.85h.02c-.16-.35.42-.97-.22-1.1-.83-.16-1.12.52-1.21,1.32-.23-.35-.15-.59-.06-.82.24-.57-.29-.76-.57-.99-.29-.24-.77-.2-.98.18-.23.43-.67.72-.76,1.23,0,0,.03-.01.03-.01-.21-.38-.26-.87-.75-1.07-.14.52-.75.67-.93,1.17.84.23.86.26.62.84Z"/>
        <path class="cls-16" d="M172.12,91.48c0-.39-.11-.68-.58-.64-1.33.1-2.68-.61-3.99.09-.9-.61-1.84-.08-2.77-.11-2.1-.05-4.11.37-6.07,1.05-2.37.83-4.63,1.88-6.63,3.42-1.15.89-1.36,1.34-1.1,2.71,1.49-1.73,3.41-2.68,5.4-3.5,2.26-.94,4.59-1.66,7.07-1.68.2,0,.74-.29.59.35-.1.43.33,1.13-.48,1.21-1.87.18-3.74.41-5.55.88-1.16.3-2.24.98-3.32,1.55-.5.26-.83.39-1.02-.3-.13-.48-.34-.18-.5,0-.45.46-.51,1.14-.99,1.61-.77.76-1.58,1.34-2.74,1.29-.45-.02-.91.18-1.46.3.39-.5.92-.44,1.39-.62-.81-.46-.98-1.3-1.3-2.05,0-.03.02-.06.03-.09-.22-.41.03-.75.25-1.03.4-.51.67-.93-.46-1.07,1.13-.27,1.93-.08,2.65.57.29.26.64-.14.76-.3,1.59-2.1,3.82-3.28,6.16-4.27,2.96-1.24,6.09-1.5,9.28-1.5,2.39,0,4.75.24,7.09.65,1.13.2,2.17.77,3.21,1.27.1.05.25.18.23.24-.27,1.06.68.85,1.12.97.91.26,1.12.51.84,1.52-.81-.54-1.49-1.24-2.37-1.63-.8-.35-1.61-.66-2.41-1-.32-.14-.51-.06-.46.29.13.87-.44.33-.72.37.57.13.71-.22.53-.62-.18-.43-.7-.3-1.07-.41-.44-.12-.53.16-.6.49ZM168.78,89.74c-.62,0-1.02.29-1.41.55.33.37.75.1,1.13.16.34.05.75.12.73-.42,0-.38-.32-.29-.45-.29Z"/>
        <path class="cls-16" d="M151.68,154.05c.88.84,1.83-.15,2.74.09.1.03.27-.38.34.05.04.23-.04.36-.3.35-.45-.03-.9-.05-1.37.05.32.05.64.11.97.14.52.06.92.23.76.87-.13.54-.31,1.04-1.03.93-.37-.05-.75-.15-1.12-.1-1.18.14-2.36.14-3.54.16-.87.02-1.74,0-2.59-.13-.78-.12-1.61-.06-2.28-.54.46-.05.49-.5.49-.79-.01-.91.33-1.16,1.18-.85.69.25,1.31-.26,1.99-.28.18,0,.25-.24.27-.44.12-1.02.34-2.03.36-3.05.01-.63.23-1.18.33-1.77.2-1.14.22-1.14-.93-1.2-.21-.01-.43-.02-.67-.04.31-.6.89.02,1.23-.32-.32-.31-.72-.43-1.17-.43-.29,0-.84.49-.69-.42.02-.15-.89-.24-1.35,0-.14.07-.19.32-.36.61-.18-.74-.96-1.14-2.42-1.47,1.96-.46,3.95-.27,5.93-.35.18,0,.35,0,.31.21-.14.76.39.68.92.7-.33.2-.85.06-.72.72.12.65.53.51.9.5.43,0,.86-.08,1.29-.12.02-.23-.16-.24-.29-.31-.16-.09-.6,0-.42-.25.11-.16.08-.6.61-.56,2.4.17,4.81.15,7.33.47-1.52.5-2.92-.36-4.35,0,.16.44.51.27.7.36-.73.46-1.51.97-2.42.43-.23-.13.26-.21.19-.44-.57-.1-1.03.04-1.31.6.27.25.63.01.95.11,1.04.32,1.05.28.53,1.24-.22.4.14.83-.04,1.25-.09.21-.09.57-.42.31-.3-.23-.49-.24-.68.06-.06.09-.13.26-.09.32.15.26.45.14.68.19.17.04.35-.02.55.04-.49-.2-.74.96-1.34.17-.29.28-.72.51-.83.84-.16.48.38-.07.48.2.03.09.2.12.42.23-.71.27-1.4-.03-2.15.32,1.08.17,2.26-.07,2.46,1.33-.22-.11-.49-.16-.44-.51.04-.34-.16-.46-.46-.4-.23.05-.57-.15-.69.13-.18.39.46.02.41.37,0,.04.09.09.11.14.29.72.37.75,1.05.26Z"/>
        <path class="cls-16" d="M161.52,97.12c.27.45-.19.43-.31.36-.49-.28-.85-.19-1.26.18-.29.26-.59.28-.69-.27-.04-.2-.02-.62-.3-.61-.33.01-.7.25-.78.59-.19.78-.6,1.11-1.43,1.19-.37.04-1.02.16-1.19.74-.15.51-.18-.05-.28-.03-.45.09-1-.04-1,.72,0,.49.11.64.59.41,2.17-1.05,4.48-1.57,6.84-1.87,1.64-.2,3.31-.54,4.94-.43,2.58.18,5.2.05,7.71.96,1.74.63,3.39,1.4,4.76,2.63.4.35.55.97.46,1.91-2.31-2.36-5.06-3.34-8.01-4.02.36-.06.72-.11,1.11-.17-.68-.55-.95-.52-1.34.08-.27.42-.69.16-1.02.13-3.43-.35-6.83-.06-10.19.62-2.87.58-5.5,1.8-8.05,3.21-.39.22-.71.58-1.12.92-.23-.92-.17-1.62.77-1.96.03.22.33.42.59.44.42.03.65-.38,1.03-.4-.07-.37-.1-.75-.18-1.12-.24-1.15-.85-2.31-.34-3.53.26-.62.64-.66,1.01-.12.13.2.2.43.32.68,1.79-.98,3.65-1.73,5.65-2.11.61-.12,1.12-.09,1.44.52.09.11.18.22.26.34Z"/>
        <path class="cls-16" d="M145.57,94.03c-.71.87-1.31,1.6-1.91,2.33-.07-.02-.14-.04-.2-.06,0-.83-.03-1.67,0-2.5.04-.83-.35-1.21-1.13-1.26-.41-.03-.82-.12-1.21-.07-.53.07-.86.1-.74-.62.07-.41-.32-.43-.64-.49-2.96-.54-5.85-.32-8.71.6-.55-2,.14-2.16,1.94-2.69,2.05-.61,4.19-.8,6.4-.22.97.25,2.05.14,3.05.59.26.12.78-.32,1.17-.52.19-.1.36-.25.55-.36.79-.43.94-.35,1.01.56.01.18.03.37.06.69.29-.91.66-.21.93-.14.15.04.46.42.17.67-.24.22-.56.56-.92.05-.14-.2-.35-.58-.66-.28-.26.25.16.4.25.6.08.17.24.31.01.48-.24.18-.32,0-.43-.17-.07-.1-.18-.17-.26-.27-.18-.21-.41-.22-.57-.05-.17.18,0,.39.15.46.57.25.53,1.26,1.4,1.11,0,.3.21.62-.13.86-.13.09-.28.14-.41.23-.21.14-.46.31-.31.59.14.27.38.09.58.04.12-.03.24-.06.55-.14ZM136.24,89.78c1.17.53,2.36.14,3.44.53.05.02.18-.04.21-.09.08-.17-.02-.25-.16-.36-.47-.37-1.21-.17-1.56-.79-.06-.1-.32-.09-.31.15.03.53-.37.43-.64.41-.32-.03-.6.01-.98.15ZM134.37,89.79c-.23.25-.81.04-.68.51.1.37.54.17.83.19.48.04.61-.55,1.03-.56.57-.02.32-.33.2-.53-.31-.53-.13.21-.34.14-.24-.08-.67.3-.73.05-.26-1.02-.77-.2-1.22-.33.22.47.65.24.9.53ZM144.29,89.05c-.25.29-.54.51-.68.8-.07.16,0,.53.36.51.42-.01.78-.25.93-.6.05-.12-.36-.43-.61-.72Z"/>
        <path class="cls-16" d="M220.18,116.21c.09.18.25.28.64.36-.49.1-.98-.37-1.11.32-.04.21-.46.23-.66.08-.88-.67-1.66-.05-2.51.13.5.14.92.1,1.19.79.31.79,1.41.38,2.2.76-1.44.31-2.78.59-4.11.87.01.09.02.18.03.26,1.32-.1,2.64-.2,4.02-.31-.18.29-.5.03-.59.31,1.66.18,2.85,1.68,4.85,1.6-2.74.81-5.36.63-7.86,1.17-.17.04-.5.02-.51-.04-.22-.84-.99-.8-1.59-1.02-.16-.06-.13-.17-.16-.29-.13-.59.11-1.27-.61-1.71-.2-.12-.22-.75.42-.7.06,0,.13,0,.18-.02.46-.23,1.09.46,1.39-.15.2-.41.08-.98.1-1.48-.3-.17-.39.29-.52.21-.36-.21-1.03.17-1.04-.81,0-.78-.29-1.68-.73-2.43.2-.34.39.08.65,0,1-.31,1.58.42,1.59,1.33.02,1.37.06,1.37,1.41,1.19,1.11-.15,2.22-.3,3.33-.45h0Z"/>
        <path class="cls-16" d="M223.58,123.33c-.61.12-1.04.66-1.7.48-.16-.04-.23.08-.3.25-.59,1.46-.6,1.42-2.26,1.43-.9,0-1.82.1-2.69.32-1.5.38-2.76.18-3.96-.87-.53-.46-1.08-.93-1.67-1.32-.33-.22-.8-.17-1.2-.25-.42-.08-.77-.42-1.23-.31.14-.53-.49-.28-.63-.64,2.46.08,4.86.24,7.25.62,1.39.22,2.79-.19,4.18-.25.27-.01.61-.3.59.31,0,.22.2.22.44-.01.53-.52.99-.51,1.56.03.06.05.2.12.22.1.49-.47.91-.11,1.4.12Z"/>
        <path class="cls-16" d="M230.63,133.84s-.01,0-.02,0c-.28,0-.51.09-.49.17.09.42-.21.35-.43.41-1.11.3-2.24.16-3.36.1-.27-.01-.53-.08-.73.3.89-.04,1.69-.07,2.5-.12.78-.04,1.6.05,2.33-.17.08-.02.15-.04.23-.06-.02-.21-.03-.41-.04-.62Z"/>
        <path class="cls-16" d="M110.56,141.25c-.09-.31.23-.29.31-.45.17-.09.35-.12.52-.13-.09-.32,0-.68.04-.99.02-.2.04-.39.06-.59-.5.01-1,.02-1.49-.05-.6-.07-.75-.4-.16-.8.56.36,1.14.32,1.72.22.01-.1.02-.21.03-.31-.58.05-1.15.19-1.74.09.17-.05.34-.1.52-.15,0-.34-.62.14-.51-.43.09-.45.35-.42.66-.45.42-.04.72.35,1.12.4.02-.18.03-.37.04-.55-1.01,0-2.02,0-3.03,0,0,.19.59.08.35.45-.14.22-.33.56-.65.46-.55-.17-1.17.22-1.7-.3-.15-.14-.72-.39-.87.22-.03.12,0,.27-.2.14-.1-.06-.25-.41-.3.03.25,0-.14.45.33.41.38-.03,1-.45,1.21.34.02.07.31-.07.28-.13-.26-.45-.06-.38.29-.33.36.05.77-.14,1.01.28.05.09,0,.24-.02.36-.58-.1-.59.76-1.24.57.43.64.88-.1,1.24.21-.19.7-1.02.19-1.37.67.64.17,1.22.31,1.8.47.14.04.33.05.33.26,0,.21-.17.16-.31.22-.72.32-.72.79-.1,1.34.27.24.38.54-.12.77-.63.29-1-.04-1.31-.5-.58.96.2,1.24.77,1.59-.97.45-1.9.78-2.94.28.07.54.45.47.66.64.26.21.11.37.02.56-.07.15-.08.45-.34.32-.69-.35-.95.28-1.36.56.08.02.17.05.24.02.51-.17.94.25,1.3.25.37,0,.09-.89.5-1.25.14-.12.22-.32.46-.22.16.07.28.22.19.37-.35.57.2.7.41,1.04.2-.34.14-.81.76-.65.19.05.9-.06.67-.72-.07-.21.06-.42.22-.47.31-.09.24.13.3.35.07.24.37.07.53-.08-.2-.28-.62-.68-.55-.82.24-.46.41-.92.6-1.39.1-.25.62-.36,1.01-.37.21,0,.58-.04.35-.3-.54-.6.17-.76.31-1.09-.26-.25-.72.09-.86-.39ZM109.78,140.91c.09-.32.45-.22.59-.43.07-.11.32-.27.09-.35-.45-.15-.44-.44-.16-.62.22-.14.55-.44.84-.2.24.2.17.58.11.86-.04.21-.23.4-.36.59-.36.04-.72.09-1.1.14Z"/>
        <path class="cls-16" d="M140.77,107.51c-.47.05-.91-.18-1.43.38-.36.39-1.45.32-2-.1-.39-.3-.68-.53-1.18-.54-.71-.02-.33-.55-.41-.86,1.01.73,2.15.43,3.2.68.06-.54-1.2-.73-.23-1.35-.47-.64-2.04.3-1.9-1.36.01.8-.94.55-1.22,1.15,0-1.12-.09-2.25.03-3.35.1-1.03,1.73-1.38,2.89-.73,1.34.75,2.1,1.77,2.07,3.38-.01.87-.14,1.78.18,2.71Z"/>
        <path class="cls-16" d="M179.23,95.62c.15-1.02.42-1.13,1.34-.63.13.07.24.17.17.23-.49.42-.24,1.33-.45,1.44-.73.39-.13.75-.13,1.1-.65.04-1.14-.29-1.63-.67-1.07-.82-2.23-1.56-3.56-1.81-.7-.13-1.25-.61-1.96-.62-.8,0-1.58-.24-2.4-.24-.76,0-1.52-.34-2.33-.27-.34.03-.67-.03-.69-.53-.02-.53.27-.55.65-.53.15,0,.41,0,.44-.08.36-.97,1.15-.53,1.75-.49,3.09.2,5.94,1.14,8.49,2.92.09.07.2.11.32.17Z"/>
        <path class="cls-16" d="M148.08,96.93s-.02.06-.03.09c.04.31.15.64.09.93-.05.24.39.95-.45.66-.07.37-.15.73-.21,1.1-.19,1.19-.21,1.24-1.41.92-2.56-.69-5.17-.93-7.81-.9-2.39.02-4.76.34-7.08.83-1.19.25-2.42.84-3.34,1.84-.13-.69-.14-.7.22-1.05.99-.97,2.21-1.5,3.54-1.81.26.13-.29.66.25.59.77-.09,1.56-.16,2.21-.69-.83.14-1.66.18-2.49.12,1.65-.42,3.28-.93,5-.26.37.14.69-.28,1.04-.33,1.8-.26,3.6-.21,5.38.14.4.08.86.11,1.07-.16.7-.91,1.65-.69,2.47-.5.91.21,1.14-.1,1.18-.9.01-.23-.1-.59.26-.72.02,0,.06.02.07.04.02.02.03.06.04.08Z"/>
        <path class="cls-16" d="M219.32,132.45s-.06-.06-.09-.09c-.04-.47-.07-.93-.11-1.4-.1-1.17-.1-1.2,1.1-1.22,2.35-.04,4.69-.05,7.04-.06.77,0,1,.34.71,1.03-.1.23-.25.45-.06.69.44.55.05.77-.38.94-.23.09-.48.14-.73.14-2.38.03-4.75.04-7.13.05-.12,0-.24-.06-.36-.09ZM222.99,130.43c-.71.17-.98.55-.78,1.14.08.23.4.48.57.35.51-.39.15-.95.21-1.49ZM223.21,130.99c.75.43,1.46.36,2.14-.12-.71.04-1.43.08-2.14.12ZM225.85,131.68c.12-.38.71-.51.52-1.04-.07-.18.02-.47-.32-.44-.14.01-.34-.14-.4.07-.12.41.22.19.36.26.21.1.04.25-.04.37-.15.23-.29.46-.12.78Z"/>
        <path class="cls-16" d="M148.69,130.26c-.3.42.01.87-.2,1.22-.27-2.06-.4-4.14-.27-6.23.08-1.26.45-2.42,1.73-3.03.78-.38.99-.25,1.02.58.06,1.81-.05,3.62.14,5.43.05.47-.18.97-.3,1.46-.14.56-.63.35-.94.31-.72-.1-.94.18-.92.86.03,1.2,0,2.41-.14,3.62-.67-1.36.12-2.75-.13-4.21ZM150.81,127.76c.09-.48.02-.97-.17-1.44-.04-.1,0-.29-.19-.26-.11.02-.3.15-.29.19.22.97-.79,1.4-.95,2.28-.15.85,1.23.3.73,1.1.15.01.3.03.46.04.27,0,.26-.2.29-.39.07-.49.24-.98.12-1.51Z"/>
        <path class="cls-16" d="M179.81,101.61c-1.04-1.6-2.41-2.35-3.8-3.06-2.06-1.06-4.3-1.39-6.57-1.53-.43-.03-.86-.02-1.26-.22-.41-.21-.41-.22-.16-.71.37-.72.36-.64,1.44-.53,2.84.29,5.43,1.31,7.98,2.51.8.38,1.53.84,2.03,1.58.09.14.18.22.34.29.37.17.39.21.13.47-.3.3-.18.63-.12,1.22ZM172.9,97.17c-.98-1-1.3-1.07-2.46-.55.77.54,1.68.22,2.46.55Z"/>
        <path class="cls-16" d="M214.17,109.85c-3.03-.86-6.12-.74-9.23-.64-2.2.07-4.38,1.02-6.52.63-.12.04-.24.07-.36.11-.03.01-.07.03-.1.04,0,0-.01,0-.02,0-.06.03-.11.05-.17.08-.06.03-.12.06-.17.1-.03.02-.05.03-.08.05-.01,0-.02.02-.04.03.01,0,.07-.06.03-.02-.09.07-.17.11-.28.12-.26.12-.59.22-.7.47,2.15-.4,4.15-.98,6.25-.98,1.65,0,3.27-.51,4.94-.32,1.07.12,2.11-.1,3.23.33.78.3,1.64.22,2.02,1.17.12.29.54.06.73.41-.75.15-.83.79-.78,1.26.04.43.65.31,1.03.36.25.04.49.12.73.15.21.03.39.07.56-.18.68-1.02.09-2.83-1.07-3.16Z"/>
        <path class="cls-16" d="M128.04,100.47c.16-1.5,1.28-2.02,2.3-2.43,2.18-.89,4.47-1.4,6.83-.77.47.13.32-.42.76-.4.71.03,1.34.38,2.05.33.24-.02.46.3.75,0,.17-.18.4-.03.4.18,0,.36.05.49.44.35.17-.06.41.02.4.27-.01.34-.3.25-.5.24-2-.18-4-.14-6-.07-2.63.1-5.18.51-7.41,2.3ZM130.25,98.4c.89.12,1.56.18,1.93-.74-.71.06-1.29.2-1.93.74Z"/>
        <path class="cls-16" d="M112.03,133.93c.1-.42.21-.83.21-1.27-.12,0-.24.01-.34.01-1.91-.01-3.81,0-5.72,0,0-.06,0-.11,0-.17-.66,0-1.31,0-1.97,0-1.31,0-2.63,0-3.94-.04-.45-.02-.36.3-.46.52-.11.25.09.28.23.26.96-.11,1.92.2,2.85.07.77-.12,1.45-.34,1.99.45.08.11.34.14.52.14,2.16.03,4.32.05,6.48.06.06,0,.11,0,.16-.02Z"/>
        <path class="cls-16" d="M178.46,90.48c-.68-.3-1.25-.52-1.97-.5-.77.02-1.48-.49-2.13-.9-.46-.28.08-.9-.37-1.4.61.2,1.04.34,1.51.5.1-1.09-.03-2.15.22-3.19.25-1.01.8-1.2,1.59-.51q.35.31-.14,1.12c.75,0,1.38.14,1.04,1.2-.05-.47.06-.9-.61-.91-.71-.02-.7.52-.73.85-.05.63-.02,1.26-.17,1.89-.05.21,0,.62.47.82.44.18,1.16.2,1.28,1.03Z"/>
        <path class="cls-16" d="M207.46,114.5c.41.08.68.14.93.19.12.3-.13.43-.26.43-.5.03-.7.19-.48.7.01.03.08.88-.54.33-.15-.13-.51-.18-.66.09-.37.68-1.02.19-1.5.38,0-.64-.61-.2-.84-.46-.34-.41-.22-.9-.22-1.35,0-1.95.41-2.28,2.38-2.15.44.03.79.13.98.57.1.23.22.47.47.55.24.08.55.11.5.44-.05.32-.41.14-.75.27ZM204.49,115.23c.33.22.37.64.84.54.44-.1.71-.38,1.03-.64-.24-.28-.53-.5-.92-.51-.48-.02-.52.51-.95.61ZM205.12,114.26c.52,0,.75-.17.72-.61-.02-.27.03-.6-.42-.56-.45.05-.76.22-.76.75,0,.42.26.43.46.42Z"/>
        <path class="cls-16" d="M112.64,128.68c-.01-.52-.05-.86-.77-.9-2.21-.14-4.42-.15-6.63-.18-.48,0-1.32-.17-1.37.19-.09.55.82.24,1.13.62-.13.25-.43-.04-.67.33,2.57.13,5.05.26,7.54.36.23,0,.63.26.74-.11,0-.11.02-.21.03-.32Z"/>
        <path class="cls-16" d="M104.08,114.55c-1.78.01-3.57-.05-5.23.78-.25.12-.31.04-.41-.16-.11-.23-.11-.37.13-.54.56-.4,1.23-.45,1.86-.56.77-.13,1.55-.15,2.33-.17.24,0,.71-.25.68.38,0,.15.47.1.49.05.42-.82,1.1-.34,1.67-.34,2.48-.03,4.85.79,7.31.96.17.01.38.08.31.36-.07.26-.25.19-.44.19-1.68-.04-3.33-.35-4.98-.63-1.24-.21-2.47-.29-3.72-.32Z"/>
        <path class="cls-16" d="M113.26,116.53c-.38.13-.78.05-1.08-.15-1.5-1-3.07-.53-4.62-.33-.21.03-.1.31,0,.48.03.07.07.14.1.21.38.25.36-.45.76-.32-.08.43-.11.77.54.59.71-.19,1.39.21,2.08.31.63.09,1.27.06,1.86.41.08.05.21.09.35.07-.05-.42-.04-.86.03-1.28Z"/>
        <path class="cls-16" d="M137.74,95.91c-1.67-.09-3.31.1-4.96.33-.31.04-.84.4-.96-.32-.12-.75.4-.7.88-.74,1.97-.15,3.94-.53,5.92-.34.56.06,1.56-.26,1.51.68-.05.75-.95.26-1.45.37-.3.07-.62.01-.94.01Z"/>
        <path class="cls-16" d="M105.49,135.53c-1.5-.58-2.56,1.21-4.06.49.53-.36,1.15-.07,1.85-.28-.66-.42-1.19-.51-1.75-.25-.61.28-1.07-.12-1.57-.32-.12-.05-.27-.19-.22-.37.06-.21.24-.14.39-.15,2.69-.13,5.38.11,8.07.17.58.01.56.59.88.84.1.07-.32.36-.58.47-.46.2-.52,1.04-1.28.81-.04-.01-.2.41.14.47.24.04.49,0,.74.06-.32.08-.58.43-.98.13-.32-.24-.19-.54-.19-.84,0-.36.04-.26.33-.21.48.08.28-.5.48-.73-.56-.18-.82-.97-1.49-.85-.6.11-1.17-.05-1.89.04.43.16.86,0,1.13.52Z"/>
        <path class="cls-16" d="M134.44,92.59c-.64.54-1.4.11-1.73.73,1.09.23,2.08-.16,3.1-.15.18,0,.51.02.48-.3-.02-.25-.3-.16-.62-.24,1.52-.33,2.9-.31,4.25.01.62.15-.05.76.19.99-1.38.2-2.71-.31-4.13-.14-1.55.19-3.08.4-4.57.9-.17.06-.48.1-.46-.12.03-.39-.23-.89.3-1.17.34-.17.68-.31,1.07-.34.62-.05,1.23-.1,2.12-.17Z"/>
        <path class="cls-16" d="M183.75,111.47c-.04-.96-.08-1.93-.13-2.89-.02-.46.14-.65.61-.5,1.49.46,2.99.9,4.48,1.38.23.07.66.15.51.52-.1.24-.41.39-.75.44-.65.09-1.18-.36-1.83-.28-.28.03-.49-.09-.79.17-.17.15-.74.55-1.04-.09-.06-.14-.24-.31-.46-.27-.29.06-.25.31-.27.52-.03.34-.07.67-.1,1.01-.07,0-.14,0-.22,0Z"/>
        <path class="cls-16" d="M100.92,126.59c-.02-.31.99-.27-.15-.69,2.13-.08,3.99-.19,5.9-.07,1.86.11,3.73.07,5.59.26.29.03.75-.16.7.46-.06.65-.49.32-.76.29-3.32-.37-6.65-.43-9.98-.28-.44.02-.84-.39-1.29.03Z"/>
        <path class="cls-16" d="M226.51,119.55c-.8.12-.43.82-.75,1.22-.25-.42-.67-.54-1.11-.66-.57-.16-1.4.01-1.33-1.02.01-.16-.2-.2-.37-.21-.26-.02-.61.09-.56-.39.04-.37.16-.62.58-.73.72-.18,1.42-.1,2.13,0,.27.04.52.13.69-.25.18-.41.02-.43-.31-.52-.35-.1.07-.15.08-.25,0-.13.19-.39.26-.15.19.62.66.11.95.33-.15.32-.88.36-.53.96-.03.02-.06.05-.08.05-.82-.12-.43.43-.48.79-.08.61,0,1.01.81.84Z"/>
        <path class="cls-16" d="M100.36,124.25c1.21-.38,2.27-.36,3.28-.32,2.9.1,5.81.12,8.7.47.24.03.51-.08.52.32,0,.38-.28.41-.51.38-1.73-.24-3.47-.29-5.21-.45-.48-.04-.93-.16-1.45-.17-1.23-.02-2.44.23-3.66.19-.5-.02-.99,0-1.67-.42Z"/>
        <path class="cls-16" d="M99.58,118.49c1.11-.4,2.27-.37,3.41-.36,1.37.01,2.74-.08,4.1.14.3.05.72-.02.67.42-.04.38-.31.68-.78.63-.59-.06-1.18-.13-1.77-.16-1-.04-2-.02-3-.09-.72-.05-1.59.35-2.1-.57-.04-.08-.34-.01-.52-.01Z"/>
        <path class="cls-16" d="M139.36,101.35c2.38.17,4.74.39,7.03,1.03.24.07.48.14.72.2.46.11.36.46.3.75-.08.39-.4.35-.67.23-1.81-.74-3.74-.95-5.65-1.22-.74-.11-1.13-.71-1.74-1Z"/>
        <path class="cls-16" d="M107.55,116.52c.03.07.07.14.1.21-.01.13-.06.29-.21.24-2.26-.74-4.54-.16-6.81-.06-.15,0-.4.08-.44.02-.15-.23-.53-.4-.52-.55.02-.42.42-.18.66-.24,1.57-.44,3.15-.52,4.77-.42.91.05,1.7.32,2.44.81Z"/>
        <path class="cls-16" d="M147.35,106.09c-.76-.4-1.67-.39-2.3-1.05-.19.25-.58-1.06-.65.09-.37-.03-.78.03-1.1-.11-.34-.15-.63-.16-.97-.1-.64.11-.64-.41-.66-.77-.03-.46.36-.36.65-.33,1.4.16,2.83.07,4.18.62,1.02.41,1.03.4.85,1.65Z"/>
        <path class="cls-16" d="M208.82,129.23c-.39-.82-.4-1.69-.75-2.49h2.6c-.19.44-.56.18-.78.37.51.49,1.39.9.46,1.76.36,1.5-.73.94-1.39.97-.45.02-.9,0-1.35-.18.51,0,1.02-.06,1.52.01.93.13,1.21-.22.9-1.13-.32.21-.22.54-.31.82-.12-.45-.38-.86-.31-1.38.02-.17.02-.5-.29-.51-.32,0-.29.28-.29.49-.01.43,0,.86,0,1.29Z"/>
        <path class="cls-16" d="M113.06,122.89c-1.93-.16-3.87-.31-5.8-.49-.52-.05-.95.09-1.37.45.13.05.21.11.3.12,1.37.1,2.75.34,4.1.25.91-.07,1.8.42,2.7.16.01-.16.03-.32.07-.48Z"/>
        <path class="cls-16" d="M109.83,118.85c-.23-.07-.4-.12-.6-.18.09-.06.14-.11.18-.11.96.06,1.91.07,2.86.28.59.13.5.49.47.86-.04.52-.42.22-.63.21-.93-.04-1.87-.13-2.8-.2-.29-.02-.72.08-.63-.43.11-.61.31.15.5,0,.18-.15.4-.27.65-.43Z"/>
        <path class="cls-16" d="M189.93,106.06c-1.52-.74-1.65-1.89-1.57-3.4,1,1.57,1.99,2.89,2.77,4.41-.91.09-1.46-.31-1.82-1.02h.62Z"/>
        <path class="cls-16" d="M230.14,117.79c-.06,1.11-.28,1.31-.95.93-.15-.08-.24-.11-.17-.33.27-.79.02-1.13-.62-1.61-.3-.23-.38-.26-.75-.2-.34.06-.69-.74-1.16-.08-.03-.09-.07-.17-.08-.26-.02-.17.02-.31.24-.31,1.03.03,2.06.05,3.05.36.47.15.51.43.45,1.48Z"/>
        <path class="cls-16" d="M142.79,96.47c-2-.16-1.58.24-1.6-2.11,0-1.03.17-1.15,1.15-1,.37.05.54.11.39.57-.2.61-.24,1.28-.4,1.9-.12.45.17.51.45.63Z"/>
        <path class="cls-16" d="M112.58,130.24c-.12-.29-.47-.35-1.32-.38-.25,0-.5.03-.74,0-.51-.07-.63.34-.66.64-.03.29-.03.74.42.83.61.13,1.22.22,1.85.19.35-.02.46-.21.49-.54.01-.12.02-.23.02-.32-.02-.14-.04-.28-.05-.42Z"/>
        <path class="cls-16" d="M108.29,120.34c1.32.88,1.66.93,2.09.21-.21-.13-.51.11-.69-.21.08-.03.16-.08.23-.08.87-.02,1.74-.02,2.61.17.34.08.48.22.44.57-.04.33-.17.55-.52.53-1.09-.08-2.18-.12-3.25-.29-.39-.06-.81-.39-.91-.9Z"/>
        <path class="cls-16" d="M148.92,117.28c0-.96,0-1.93,0-2.89,0-.51.21-.89.65-1.17.4-.25.79-.14,1.16.02.39.16.25.52.24.82-.03.56-.07,1.11-.17,1.71-.22-.73-1.07-.72-1.37-1.44-.31,1.05-.31,1.98-.5,2.96Z"/>
        <path class="cls-16" d="M184.43,99c1.21.77,1.33,2.59,3.01,3.1-.4.04-.71.07-1.05.11.21.25.51.28.78.34.16.04.23.83.5.07.02.09.05.17.06.26.02.18.08.34-.23.38-.72.08-1.17-.75-1.91-.52.06-.51-.42-.86-.42-1.34,0-.87-.23-1.65-.74-2.39Z"/>
        <path class="cls-16" d="M131.33,105.39c.17-.57,1.29-.64.55-1.45,0,0,.11-.14.18-.16.73-.15,1.45-.31,2.19-.44.32-.06.54.17.41.43-.16.33.39.92-.41,1.01-.96.1-1.92.21-2.92.62Z"/>
        <path class="cls-16" d="M161.52,97.12c-.09-.11-.18-.23-.26-.34-.23-.44-.26-.75.39-.8.58-.04,1.15-.17,1.73-.23.41-.04.8-.1.8.56,0,.55-.02.85-.73.8-.63-.04-1.28.2-1.92,0Z"/>
        <path class="cls-16" d="M106.67,131.05c-1.03.34-2.04.29-3.09.09.61-.22.08-1.37,1.12-1.25.65.07,1.31.01,2.16.01-.81.38-.29.78-.18,1.15Z"/>
        <path class="cls-16" d="M100.36,112.98c3.27-.37,6.5-.14,9.72.39.62.1,1.24.18,1.86.28.14.02.34,0,.3.23-.03.23-.16.31-.4.25-.36-.09-.74-.13-1.09-.24-1.83-.6-3.75-.56-5.62-.84-1.62-.24-3.2.24-4.77-.07Z"/>
        <path class="cls-16" d="M132.24,107.11c-.35-.06-.72-.12-.72-.49,0-.37.42-.32.65-.37.64-.14,1.29-.23,1.94-.28.23-.02.68-.24.64.35-.03.4.02.73-.6.76-.89.06-1.78.3-2.66.47.09-.35.51-.22.75-.44Z"/>
        <path class="cls-16" d="M124.47,152.44c.43.31.67.49,1.1.24.28-.16.83.2,1.15.06.79-.34.73.48,1.08.71.15.1.25.47.05.76-.15.22-.31.17-.49.11-.25-.09-.53-.05-.28-.54.12-.23-.43-.31-.81-.18-.7.24-1.59-.28-1.8-1.17Z"/>
        <path class="cls-16" d="M119.09,145.72c-.16-.1-.31-.21-.47-.31.03-.24.03-.62.27-.62.82,0,1.49-.71,2.35-.43-.03.2-.71.26-.12.63.14.09-.07.32-.25.43-.37.23-.68.05-1-.2-.1.64.26.69.68.7q-1.2.44-1.46-.2Z"/>
        <path class="cls-16" d="M99.66,129.07c.71.08.53-1.27,1.43-.81-.12-.43-.41-.23-.56-.34-.04-.08-.01-.1.08-.11.46-.04.92-.1,1.38-.14.26-.02.68-.19.72.16.02.25-.02.64-.37.88-.64.45-1.34.3-2.03.37-.21.02-.43,0-.65,0Z"/>
        <path class="cls-16" d="M130.51,102.4c1.2-.43,2.38-.85,3.65-.83.23,0,.56-.11.62.23.06.37-.25.48-.54.5-1,.06-1.98.25-2.93.57-.49.17-.45-.47-.8-.47Z"/>
        <path class="cls-16" d="M145.09,107.04c.15.15.07.31-.05.39-.84.54-2.45-.26-2.51-1.25.72-.12,1.41.14,2.12.19.29.02.46.18.37.5.03.06.05.11.08.17Z"/>
        <path class="cls-16" d="M145.09,107.04c-.03-.06-.05-.12-.08-.17.65-.84,1.36-.11,2.04-.04.59.06.42.58.43.96,0,.18-.09.49-.28.35-.64-.5-1.8.02-2.11-1.09Z"/>
        <path class="cls-16" d="M99.72,129.91c.73-.42,1.53-.14,2.29-.15.45,0,.45.7.54,1.07.09.37-.36.33-.62.31-.52-.03-1.03-.1-1.62-.15.22-.42.9-.68.75-.86-.28-.36-.85-.25-1.34-.22Z"/>
        <path class="cls-16" d="M190.67,145.87c.27.07.51.19.66.44-.31.35-.83.56-.77,1.16,0,.07,0,.12,0,.15-.29.21-.57.32-.58-.2,0-.12.06-.27-.08-.27-.29,0-.64.06-.66-.32-.02-.45.52.06.55-.22.04-.47.14-.87.59-1.11,0,0-.01-.03-.01-.03,0,.21.19.28.31.4Z"/>
        <path class="cls-16" d="M153.67,80.1c.26,1.42-.82,2.15-1.57,3.04-.03.04-.22-.06-.33-.1.05-1.36,1.05-2.11,1.9-2.94Z"/>
        <path class="cls-16" d="M127.53,98.47c.11-1.49,1.27-1.94,2.33-2.53.15.69.14.68-.86,1.4-.49.35-.96.73-1.48,1.13Z"/>
        <path class="cls-16" d="M105.03,122.47c-.53.56-1.05.33-1.52.35-.87.05-1.75.05-2.62.06-.23,0-.58.11-.6-.26-.02-.47.42-.3.62-.28.67.08,1.33-.03,2.04.19.5.15,1.27-.14,2.08-.07Z"/>
        <path class="cls-16" d="M182.92,98.54c-.03-.33-.11-.66-.09-.99.04-.65-.51-1.03-.86-.95-.81.19-.4-.28-.41-.54,0-.32-.4-.57-.16-.89.6.25,1.17.54,1.53,1.16.43.75-.01,1.47,0,2.2Z"/>
        <path class="cls-16" d="M152.09,99.59c.28,1.08.09,1.96-1.15,2.28-.36-1.09-.16-1.47,1.15-2.28Z"/>
        <path class="cls-16" d="M105.49,119.89c.42,0,.8.05,1.17-.01.63-.11.55.51.83.76.09.08.1.41-.1.49-.37.14-.74.09-1.02-.23-.28-.32-.95-.25-.88-1Z"/>
        <path class="cls-16" d="M100.59,137.01h1.83c-.71.09-.18,2.65-1.86.9.68-.17.6-.47.04-.9Z"/>
        <path class="cls-16" d="M128.02,94.67c-.49-1.08-.46-2.02.65-2.73.45,1.1-.61,1.79-.65,2.73Z"/>
        <path class="cls-16" d="M190.39,148.7c.22.15.48.17.73.17.04.2,0,.41-.2.46-.65.16-1.37.2-1.23,1.2.02.13-.25.25-.46.23,0,0,.02.02.02.02.09-.57-.46-1.31.56-1.64.45-.15-.17-.32-.17-.55.27-.12.5.11.75.11Z"/>
        <path class="cls-16" d="M103.44,141.46c-.11-.74.47-.81.37-1.34.54.68,1.27.71,1.83,1.06.12.08.34.1.3.3-.05.29-.35.08-.4.12-.68.58-.79-.19-1.16-.41-.25-.15-.69-.69-.95.26Z"/>
        <path class="cls-16" d="M173.66,83.57c-.67-.45-1.43-.61-2.16-.89.52-.58,1.58.79,1.81-.77.2.63.07,1.17.35,1.66Z"/>
        <path class="cls-16" d="M220.19,116.21c.47.09,1-.36,1.44.25.17.24.41-.26.69-.28q-.21.62.51.71c-.43.55-1.1-.25-1.4.2.04-.84-.66-.8-1.25-.88,0,0,0,0,0,0Z"/>
        <path class="cls-16" d="M165.94,92.5v4.69s-.09,0-.13,0v-4.72s.09.02.13.03Z"/>
        <path class="cls-16" d="M226.16,133.65c.13.63.6.3.88.26.84-.13,1.66-.01,2.48-.02,0,.09,0,.17,0,.26-1.12,0-2.23.04-3.35-.02-.4-.02-.05-.31-.02-.48,0,0,0,0,0,0Z"/>
        <path class="cls-16" d="M150.06,135.81c.15-1.39.3-2.78.45-4.18.07,0,.15.02.22.03-.14,1.39-.28,2.79-.43,4.18-.08-.01-.17-.02-.25-.03Z"/>
        <path class="cls-16" d="M101.35,140.03c.21-1.12,1.03-.67,1.51-.92.06-.03.33.2.37.34.06.2-.2.16-.31.24-.47.33-1.02-.09-1.58.34Z"/>
        <path class="cls-16" d="M153.1,89.27c-.15.4-.65.39-.76.8.1-.52.01-.76-.6-.37.34-.58.72-.94,1.26-1.15.22.49-.52.42-.43.82.19.17.3-.28.52-.11Z"/>
        <path class="cls-16" d="M98.33,140.67c.42-.08.86.02,1.14-.46.08-.13.46-.12.7-.13.15,0,.31.07.35.25.05.27-.15.28-.33.32-.61.16-1.23.06-1.85.01Z"/>
        <path class="cls-16" d="M123.98,148.62c-.07-.87.54-1.36.83-1.99.06-.13.18-.2.3-.15.14.05.17.24.08.31-.59.48-.47,1.43-1.22,1.82Z"/>
        <path class="cls-16" d="M174.52,82.76v4.26s-.1,0-.15,0v-4.26s.1,0,.15,0Z"/>
        <path class="cls-16" d="M102.48,120.84h3.39s0,.09,0,.13h-3.39s0-.09,0-.13Z"/>
        <path class="cls-16" d="M162.41,153.5c.06.83.19,1.67-.13,2.57-.57-.95.25-1.74.13-2.57Z"/>
        <path class="cls-16" d="M170.76,79.53c-.85.02-1.68-.08-2.67-.42,1.07-.17,1.89.02,2.67.42,0,0,0,0,0,0Z"/>
        <path class="cls-16" d="M103.08,130.7v-2.28h.24c.07.68.12,1.35-.24,2.28Z"/>
        <path class="cls-16" d="M223.61,122.7c.78.16,1.57-.24,2.23.32-.7-.23-1.49.22-2.23-.32Z"/>
        <path class="cls-16" d="M178.8,87.33c.92.49-.03,1.33.58,2.04-1.17-.6-.05-1.48-.58-2.04Z"/>
        <path class="cls-16" d="M121.26,148.31c.52-.32,1-.18,1.44-.15.17,0,0,.51.36.58-.12.07-.05.45-.33.21-.05-.04.02-.24-.15-.28-.41-.11-.81-.22-1.32-.35Z"/>
        <path class="cls-16" d="M100.94,139.16c-.05.11-.1.19-.13.27-.09.25-.22.49-.52.39-.47-.16.05-.35.03-.38-.26-.35-.68.01-.98-.28h1.61Z"/>
        <path class="cls-16" d="M211.54,127.04c0,.94-.01,1.88.01,2.82,0,.18-.02.22-.17.2-.13-.02-.2-.09-.17-.26.2-.91.05-1.84.32-2.77Z"/>
        <path class="cls-16" d="M146,89.26c-.23-.26.2-.82-.43-.9-.05,0-.21-.16-.07-.29.09-.08.2-.15.32-.18.17-.04.34.05.33.23-.03.38.17.79-.15,1.14Z"/>
        <path class="cls-16" d="M191.16,145.46c-.1.07-.2.14-.3.22-.11-.2-.29-.24-.49-.21,0,0,.01.03.01.03.25-.34.51-.39.78-.04Z"/>
        <polygon class="cls-16" points="225.45 136.47 225.48 136.48 225.51 136.45 225.45 136.47"/>
        <path class="cls-16" d="M228.64,137c-.3.17-.59.09-.91.05-.52-.07-1.04-.05-1.49.31-.14-.14-.27-.27-.41-.4.94-.32,1.87-.17,2.8.04Z"/>
        <path class="cls-16" d="M217.32,145.66c-.11.28-.26.53-.55.65-.37.08-.37-.24-.47-.44-.07-.29-.24-.63.17-.77.34-.12.44.19.56.44.04.08.2.1.31.15v-.02Z"/>
        <path class="cls-16" d="M208.28,133.65c.03.76.67.43,1.05.7-.43,0-.86.02-1.29,0-.27-.01-.41,0-.34.34.05.25.02.59.38.44.77-.3,1.52-.05,2.27-.03.84.02.89.16.29,1.29.19-.93-.12-1.17-.8-1.02-1.09.23-2.16-.12-3.28-.15.52,0,.96-.04.8-.73-.02-.08-.06-.21-.02-.26.5-.59.5-.58.45-1.15.27.14.66.14.47.62,0,0,.01-.04.01-.04Z"/>
        <path class="cls-16" d="M208.28,133.65s-.01.04-.01.04c.03-.01.05-.02.08-.03-.02,0-.05,0-.07-.01Z"/>
      </g>
      <g id="CONTOURS">
        <path class="cls-8" d="M215.8,117.09c2.29-2.37,11.39-3.17,14.43-.83.3,16.7.39,21.97,4.29,29.52.4,2.29-8.56,2.83-11.82,2.01-6.69-10.76-6.28-7.44-6.89-30.7Z"/>
        <path class="cls-8" d="M179.53,94.03l2.99.9,4.06,6.69h1.49l5.14,8.23,3.29.99c-.14,22.71-.3,30.22,5.26,39.12l-15.7,1.94c-5.42-11.06-5.88-29.69-6.53-57.89Z"/>
        <path class="cls-8" d="M223.27,149.14c-6.78-10.9-7.3-9.56-7.63-38.9-3.72-3.3-14.87-2.33-19.14.61,0,27.09-.36,26.98,5.26,39.12,3.47,2.38,21.03,1.75,21.51-.84Z"/>
        <path class="cls-8" d="M112.32,113.32l15.57-8.95c.27,19.77-.26,37.92-4.95,46.05l-12.83-.69c3.84-19.04,3.49-35.75,3.49-35.75l-1.27-.66Z"/>
        <path class="cls-8" d="M98.44,113.98c1.56-2.21,11.1-2.29,15.16,0-.06,20.76-3.49,35.75-3.49,35.75-2.32,2.12-17.47,2.49-16.47-.4,5.43-7.32,5.2-26.3,4.8-35.35Z"/>
        <path class="cls-8" d="M147,99.92l.87,39.88,2.34.06c1.19-13.3,1.31-27.77.7-43.33-.06-2.58-3.93-2.69-3.91,3.39Z"/>
        <path class="cls-8" d="M127.61,92.87c.13,25.19,2.36,49.08-6.03,59.86-1.32,3.55,20.18,6.83,26.28,3.3.95-3.3,2.35-16.17,2.35-16.17l-2.34-.06c-.21.28-1.45-35.8-1.06-40.76l-3.99-.34s.18-5.47.19-9.46c-5.67-1.74-12.53-.37-15.41,3.62Z"/>
        <path class="cls-10" d="M147.08,98.97c-.14-2.58,2.6-6.74,4.12-2.49,0,0-.29.09-.29.09-1.89-5.26-6.68-1.71-7.67,2.12,0,0-.17-.26-.17-.26,1.29.15,2.61.35,4.01.54h0ZM147.12,99.01c-1.37-.05-2.86-.09-4.32-.19.52-2.03,1.62-4.13,3.65-5.01,2.1-1.01,4.3.57,4.76,2.68,0,0-.29.09-.29.09-1.31-4.03-3.84.18-3.8,2.43h0Z"/>
        <path class="cls-10" d="M142.8,89.31l7.88-4.38.17-.09v.19s.12,10.7.12,10.7v.94s-.38-.86-.38-.86c-1.32-2.73-4.86-1.04-6.15.87-.52.68-.92,1.46-1.21,2.27l-.48-.08c-.02-3.22-.02-6.45.05-9.56h0ZM142.85,89.34c.18,3.25.3,6.39.4,9.53l-.48-.08c.85-2.49,3.13-5.14,6.02-4.83.96.12,1.8.83,2.16,1.69l-.38.08.04-10.7.17.1-7.95,4.21h0Z"/>
        <path class="cls-10" d="M187.7,155.17c-6.37-8.54-7-26.39-7.79-37.03-.69-12.74-.65-25.51-.69-38.26-1.96-2.66-6.07-4.31-9.65-4.47-3.67-.25-7.53.14-10.93,1.54-2.02-.13-4.73.75-4.92,3.07-1.04,1.56-2.38,3.5-2.75,5.23.29,11.79.73,23.59.54,35.4-.19,11.74-.92,23.8-3.39,35.2.37,2.41,7.2,2.83,9.26,3.12,4.3.62,29.7.89,30.32-3.81h0ZM187.75,155.15c-.08,2.59-7.32,3.29-9.37,3.68-6.97.89-14.03,1.05-21.03.49-3.02-.38-6.34-.48-8.96-2.2-.36-.29-.71-.77-.67-1.31,2.37-11.55,3.11-23.38,3.34-35.15.21-11.79-.21-23.59-.47-35.39.37-1.89,1.85-4.11,2.77-5.27.06-1.19.91-2.22,1.95-2.74.89-.54,2.58-.75,3.24-.65,6.39-2.41,16.58-2.82,21,3.28.38,17.62-1.6,62.18,8.22,75.27h0Z"/>
        <path class="cls-10" d="M153.73,79.88c-.38-3.27,6.49-4.04,8.01-1.69.05.06.05.06.03.14-.39,1.32-1.08,2.9-2.55,3.18,0,0,.16-.16.16-.16-.35,1.65-.55,4.75-3.03,4.17-.48-.12-.85-.49-1.08-.86-.82-1.51-1.27-3.1-1.54-4.78h0ZM153.77,79.9c.45,1.51,1.05,3.17,1.86,4.52.22.32.5.55.84.63,2.04.46,2.07-2.45,2.48-3.79.04-.16,0-.13.16-.16,1.36-.24,1.92-1.68,2.33-2.84,0,0,.03.14.03.14-.44-.63-1.19-1.01-1.96-1.18-1.92-.42-5.92.07-5.73,2.7h0Z"/>
        <path class="cls-10" d="M125.89,143.03c5.49,2.21,11.94,2,17.81,2.07,2.03-.05,4.06-.15,6.06-.47-4,.76-8.09.89-12.15.89-4.14-.15-8.24,0-12.21-1.61,0,0,.49-.87.49-.87h0Z"/>
        <path class="cls-10" d="M149.75,145.13c5.51,1.37,11.25,1.3,16.89,1.32,5.62-.11,11.34-.29,16.88-1.18,0,0,.17.99.17.99-5.68.75-11.35.76-17.06.7-5.65-.19-11.42-.28-16.89-1.82h0Z"/>
        <path class="cls-10" d="M97.37,140.39c2.16.58,4.71.56,7.02.65,2.44,0,5.04.07,7.39-.53,0,0,14.33.5,14.33.5h-14.34c-1.99.65-5,.7-7.38.78-2.45-.02-4.96.14-7.35-.46-.13-.04-.26-.12-.36-.21l.7-.72h0Z"/>
        <path class="cls-10" d="M182.41,140.86l15.33-1.15c3.33.3,6.69.42,10.03.4,3.26-.07,6.71-.06,9.87-.74,0,0,.25.97.25.97-6.64.99-13.63.46-20.13-.2,0,0-15.35.72-15.35.72h0Z"/>
        <path class="cls-10" d="M196.64,130.63c6.45.14,12.97.43,19.4,0,0,0,.04.5.04.5-6.5.27-12.96-.19-19.45-.5h0Z"/>
        <path class="cls-10" d="M216.18,131.95c4.87.64,9.94.6,14.82.14,0,0,.1.49.1.49-4.98.31-10,.18-14.92-.63h0Z"/>
        <path class="cls-10" d="M196.82,111.39c-4.01-.54-9.52-2.43-13.46-3.48,0,0,.01-.05.01-.05,3.94,1.03,9.83,1.95,13.45,3.53h0Z"/>
        <path class="cls-10" d="M147.85,139.81c-.55-6.78-.5-13.58-.7-20.38-.23-5.09-.58-10.18-.62-15.29.07-2.92-.46-6.32,1.56-8.74.43-.5,1.21-.82,1.86-.51.63.28,1.01.88,1.25,1.46l-.05.02c-.27-.57-.69-1.11-1.27-1.32-2.07-.45-2.63,2.57-2.86,3.99-.04,3.38.07,6.78.12,10.18-.09,9.85,1.02,20.87.71,30.58h0Z"/>
        <path class="cls-10" d="M150.81,122.58c-2.08-1.64-2.67,3.4-2.86,4.7-.25,2.42-.26,4.87-.2,7.32-.19-2.44-.3-4.89-.17-7.35.11-1.94.68-7.31,3.73-5.23,0,0-.5.56-.5.56h0Z"/>
      </g>
    </g>
  </g>
  <g id="GRENADE">
    <path class="cls-12" d="M137.91,102.34c-2.4,8.66-8.45,17.12-16.1,19.58,1.42-10.92,20.64-14.27,11.64-31.39-1.17,7.21-4.88,12.57-11.64,17.12.39-11.25,15.48-20.67,1.93-31.89.77,6.33-1.98,12.16-5.2,15.26-.13-.18-.25-.36-.38-.54-1-1.4-1.91-2.86-2.71-4.4,0,0,0,0,0,0-.8-1.54-1.49-3.16-2.06-4.85h0c-1.76-5.26-2.38-11.29-1.46-18.29-9.61,9.81-7.36,18.46-3.31,27.55,0,0,0,0,0,0,.02.05.05.1.07.16.33.73.67,1.47,1.01,2.21,1.23,2.64,2.54,5.33,3.69,8.11,0,0,0,0,0,0,3.33,8.05,5.28,16.83,0,27.27-4.84-9.56-3.61-17.73-.81-25.22-1.02-2.66-2.24-5.26-3.45-7.83-1.04-2.2-2.08-4.41-2.97-6.65-2.21-3.26-3.73-7.86-3.13-12.76-13.55,11.21,1.55,20.63,1.93,31.89-6.76-4.55-10.46-9.92-11.64-17.12-9,17.12,10.22,20.48,11.64,31.39-7.65-2.46-13.7-10.92-16.1-19.58-1.76,14.98,7.26,27.01,19.03,29.64-.31.16-.52.47-.52.84,0,.53.43.96.96.96h.94v.88c-6.22,1.79-10.77,7.5-10.77,14.29,0,8.22,6.66,14.88,14.88,14.88s14.88-6.66,14.88-14.88c0-6.79-4.55-12.51-10.77-14.29v-.88h.94c.53,0,.96-.43.96-.96,0-.37-.22-.68-.52-.84,11.77-2.63,20.8-14.67,19.03-29.64Z"/>
    <path class="cls-12" d="M114.16,78.62c.94,3.57,2.44,6.89,4.53,10.01.21-.27.42-.56.62-.85,3.23-8.12,4.2-16.01-4.46-24.84.77,5.87.47,11.07-.69,15.69Z"/>
  </g>
  <g id="CONTOUR_EXT">
    <g>
      <path class="cls-10" d="M113.39,0C50.76,0,0,50.76,0,113.39s50.76,113.39,113.39,113.39,113.39-50.76,113.39-113.39S176.01,0,113.39,0ZM113.39,205.51c-50.88,0-92.13-41.25-92.13-92.13S62.51,21.26,113.39,21.26s92.13,41.25,92.13,92.13-41.25,92.13-92.13,92.13Z"/>
      <circle class="cls-7" cx="113.39" cy="113.39" r="109.13"/>
    </g>
  </g>
  <g id="CONTOUR_INT">
    <g class="cls-9">
      <circle class="cls-4" cx="113.39" cy="113.39" r="92.13"/>
    </g>
    <g class="cls-15">
      <circle class="cls-5" cx="113.39" cy="113.39" r="92.13"/>
    </g>
  </g>
  <g id="TEXTE">
    <g>
      <circle class="cls-11" cx="113.39" cy="113.39" r="106.3"/>
      <path class="cls-12" d="M65.92,208.71l-2.03-1.16,3.12-5.46c.13-.23.27-.46.4-.68.13-.22.28-.47.45-.75l-.05-.03c-.13.11-.24.21-.34.31-.1.09-.2.18-.29.26l-5.68,4.98-1.68-.96,1.33-7.38c.03-.15.06-.28.08-.39.03-.11.07-.28.12-.51l-.06-.03c-.2.38-.38.72-.55,1.01s-.32.58-.48.86l-2.88,5.04-1.88-1.08,5.21-9.12,3.04,1.74-1.23,6.47c-.04.23-.08.43-.12.6-.04.17-.09.38-.15.63l.04.02c.21-.18.37-.33.49-.44.12-.11.28-.25.48-.42l4.95-4.33,2.93,1.68-5.21,9.12Z"/>
      <path class="cls-12" d="M67.8,209.58l7.51-8.25,2.59,1.08-.65,11.11-2.3-.96.14-2.22-3.56-1.48-1.46,1.67-2.28-.95ZM72.79,207.29l2.54,1.06.38-3.82c.01-.14.03-.26.04-.38s.03-.25.05-.39l-.05-.02c-.07.1-.15.2-.23.29-.08.09-.16.2-.25.31l-2.47,2.96Z"/>
      <path class="cls-12" d="M81.19,214.73l-2.25-.74,3.29-9.97,2.25.74-3.29,9.97Z"/>
      <path class="cls-12" d="M93.01,217.84l-2.32-.56-2.69-7.31c-.07-.22-.13-.41-.18-.57-.05-.16-.08-.29-.1-.4h-.03c-.03.18-.08.41-.14.68s-.14.6-.23.97l-1.32,5.5-2.17-.52,2.46-10.21,2.48.6,2.58,7.08c.05.16.1.32.15.48.05.16.09.32.13.47h.03c.02-.11.05-.29.11-.53.05-.24.12-.53.2-.87l1.33-5.53,2.17.52-2.46,10.21Z"/>
      <path class="cls-12" d="M102.12,219.15l-6.24-.87,1.44-10.4,6,.83-.27,1.94-3.66-.51-.31,2.26,3.4.47-.27,1.93-3.4-.47-.32,2.32,3.9.54-.27,1.94Z"/>
      <path class="cls-12" d="M104.19,216.11l.11-1.62,4,.28-.11,1.62-4-.28Z"/>
      <path class="cls-12" d="M116.76,219.74l-6.3-.1.17-10.5,6.06.1-.03,1.96-3.69-.06-.04,2.29,3.44.06-.03,1.95-3.44-.05-.04,2.34,3.93.06-.03,1.96Z"/>
      <path class="cls-12" d="M125.21,210.48l-2.8.22.68,8.55-2.37.19-.68-8.55-2.8.22-.15-1.92,7.97-.64.15,1.92Z"/>
      <path class="cls-12" d="M127.25,215.59l-.25-1.6,3.96-.61.25,1.6-3.96.61Z"/>
      <path class="cls-12" d="M140.26,216.32l-6.1,1.37-2.3-10.25,2.31-.52,1.86,8.3,3.79-.85.44,1.94Z"/>
      <path class="cls-12" d="M145.94,214.8c-1.44.46-2.77.38-4-.26-1.22-.64-2.08-1.7-2.56-3.2-.51-1.58-.45-3.01.18-4.29.62-1.28,1.7-2.16,3.22-2.65,1.44-.46,2.76-.37,3.96.27,1.2.64,2.05,1.73,2.54,3.26.5,1.57.44,2.99-.18,4.25-.63,1.26-1.68,2.13-3.16,2.61ZM145.35,212.81c.79-.25,1.33-.73,1.63-1.44.3-.71.29-1.56-.02-2.54-.33-1.03-.82-1.75-1.47-2.17-.65-.42-1.36-.51-2.14-.26-.8.26-1.35.76-1.65,1.5-.3.75-.29,1.6.02,2.57.31.98.81,1.68,1.48,2.09.67.42,1.39.5,2.15.25Z"/>
      <path class="cls-12" d="M155.04,211.22l-2.19.9-4.01-9.71,2.19-.9,4.01,9.71Z"/>
      <path class="cls-12" d="M165.18,206.36l-2.38,1.19-2.67-1.84c-.36-.25-.66-.41-.91-.46-.24-.06-.49-.02-.74.1l-.57.29,1.75,3.49-2.12,1.06-4.7-9.39,3.35-1.68c1.17-.58,2.15-.77,2.95-.57.8.21,1.4.71,1.81,1.52.3.59.39,1.21.28,1.87-.11.66-.43,1.24-.97,1.73v.03c.3-.02.61.02.93.14s.7.32,1.13.61l2.85,1.92ZM155.77,201.34l1.33,2.67.92-.46c.48-.24.79-.56.93-.94.13-.39.1-.79-.12-1.21-.2-.41-.48-.66-.84-.75s-.78-.02-1.27.23l-.96.48Z"/>
      <path class="cls-12" d="M172.11,202.08l-5.36,3.31-5.51-8.94,5.16-3.18,1.03,1.67-3.14,1.94,1.2,1.95,2.92-1.8,1.02,1.66-2.92,1.8,1.23,2,3.35-2.07,1.03,1.67Z"/>
    </g>
    <g>
      <circle class="cls-11" cx="113.39" cy="113.39" r="95.24"/>
      <path class="cls-12" d="M26.34,71.9c.14.61.19,1.26.15,1.96-.04.7-.2,1.35-.46,1.97-.68,1.61-1.64,2.68-2.89,3.22-1.25.54-2.63.49-4.14-.15-1.52-.64-2.58-1.62-3.15-2.94-.58-1.32-.57-2.67.01-4.05.41-.97.94-1.7,1.57-2.18.64-.48,1.33-.75,2.07-.82l.13,2.14c-.47.07-.85.23-1.15.49-.3.26-.53.58-.7.98-.32.77-.31,1.52.03,2.26.34.74,1.01,1.32,2.01,1.74,1.02.43,1.91.51,2.66.24.75-.27,1.3-.81,1.64-1.62.1-.24.18-.5.22-.76s.05-.5.01-.73l-1.58-.67-.82,1.94-1.81-.76,1.74-4.13,4.45,1.88Z"/>
      <path class="cls-12" d="M31.14,65.21l-3,5.56-9.28-4.99,2.88-5.35,1.73.93-1.75,3.26,2.02,1.09,1.63-3.03,1.72.93-1.63,3.03,2.07,1.11,1.87-3.47,1.73.93Z"/>
      <path class="cls-12" d="M37.06,56.21l-1.34,1.98-7.82-.04c-.23,0-.43-.02-.6-.03-.17-.01-.3-.03-.41-.05l-.02.02c.16.1.36.22.6.38.24.16.52.34.83.55l4.7,3.17-1.25,1.86-8.73-5.9,1.43-2.12,7.56.06c.17,0,.33.01.5.02.17,0,.33.02.49.04l.02-.02c-.11-.06-.26-.16-.47-.29-.2-.13-.45-.3-.75-.5l-4.73-3.2,1.25-1.86,8.73,5.9Z"/>
      <path class="cls-12" d="M38.27,54.66l-7.99-6.86,2.43-2.83c1.22-1.42,2.46-2.21,3.71-2.36,1.26-.15,2.54.33,3.84,1.45,1.24,1.07,1.91,2.31,1.98,3.72.08,1.41-.44,2.76-1.54,4.05l-2.43,2.83ZM33.32,47.28l5,4.3.77-.89c.67-.78.96-1.59.88-2.43-.08-.84-.52-1.6-1.31-2.29-.75-.65-1.54-.94-2.34-.87-.81.07-1.56.5-2.24,1.3l-.76.88Z"/>
      <path class="cls-12" d="M44.33,47.6l-4.48-10.26,2.05-1.93,9.91,5.13-1.82,1.71-1.98-1.04-2.81,2.65.93,2.02-1.8,1.7ZM44.26,42.1l2-1.89-3.34-1.91c-.12-.07-.23-.13-.33-.19s-.21-.13-.34-.21l-.04.04c.06.11.12.22.18.33s.11.23.18.36l1.7,3.47Z"/>
      <path class="cls-12" d="M59.4,34.76l-2.12,1.62-2.97-1.31c-.4-.18-.73-.27-.98-.29-.25-.01-.49.07-.71.24l-.51.39,2.38,3.11-1.89,1.44-6.4-8.37,2.99-2.28c1.04-.79,1.97-1.17,2.8-1.11s1.51.44,2.06,1.16c.4.52.61,1.12.63,1.79.02.67-.19,1.3-.63,1.89l.02.02c.28-.08.59-.09.93-.03s.75.19,1.23.39l3.17,1.35ZM49.19,31.59l1.82,2.38.82-.62c.43-.33.68-.7.74-1.1.06-.41-.05-.8-.34-1.18-.28-.36-.6-.56-.96-.58-.37-.03-.77.13-1.21.46l-.85.65Z"/>
      <path class="cls-12" d="M70.53,28.1l-2.02,1.18-3.19-5.44c-.14-.23-.27-.46-.39-.69s-.27-.48-.42-.77l-.05.03c.04.17.07.32.09.45.03.13.05.26.08.38l1.49,7.43-1.67.98-5.75-4.85c-.11-.1-.21-.19-.3-.27-.08-.08-.21-.2-.38-.35l-.06.03c.23.36.43.69.61.98.18.29.34.57.51.85l2.94,5.03-1.88,1.1-5.32-9.09,3.03-1.77,5.01,4.3c.18.15.33.29.46.41.13.12.29.27.48.45l.04-.02c-.06-.27-.1-.49-.13-.64-.03-.16-.07-.37-.12-.63l-1.29-6.46,2.92-1.71,5.32,9.09Z"/>
      <path class="cls-12" d="M78.14,24.81l-5.78,2.55-4.26-9.63,5.56-2.46.8,1.8-3.39,1.5.93,2.1,3.15-1.39.79,1.79-3.15,1.39.95,2.15,3.61-1.6.8,1.8Z"/>
      <path class="cls-12" d="M87.46,21.59l-2.53.85-2.39-2.2c-.32-.3-.6-.49-.84-.59s-.48-.09-.75,0l-.61.2,1.25,3.71-2.25.76-3.37-9.98,3.56-1.2c1.24-.42,2.24-.47,3.01-.15.77.32,1.29.9,1.58,1.76.21.63.22,1.26.02,1.9s-.6,1.17-1.2,1.59v.03c.3.02.6.11.9.27.3.16.65.42,1.04.76l2.57,2.3ZM78.81,15.3l.96,2.83.97-.33c.52-.17.87-.44,1.05-.81s.2-.77.05-1.22c-.15-.43-.39-.72-.73-.86-.34-.14-.77-.13-1.29.05l-1.02.34Z"/>
      <path class="cls-12" d="M90.81,20.83l-2.3.59-2.62-10.2,2.3-.59,2.62,10.2Z"/>
      <path class="cls-12" d="M99.03,19.15l-6.21,1.17-1.96-10.35,5.97-1.13.37,1.93-3.64.69.43,2.25,3.39-.64.36,1.92-3.39.64.44,2.31,3.88-.73.37,1.93Z"/>
      <path class="cls-12" d="M103.73,18.53l-.58-10.52,3.73-.21c1.87-.1,3.29.25,4.27,1.05.98.8,1.52,2.06,1.61,3.77.09,1.64-.35,2.97-1.31,4.01s-2.3,1.6-3.99,1.69l-3.73.21ZM105.63,9.85l.36,6.59,1.17-.06c1.03-.06,1.82-.41,2.37-1.05.55-.64.8-1.48.74-2.53-.05-.99-.39-1.76-1-2.29-.61-.54-1.44-.77-2.49-.72l-1.16.06Z"/>
      <path class="cls-12" d="M120.74,18.36l-6.31-.25.42-10.53,6.07.24-.08,1.97-3.7-.15-.09,2.29,3.44.14-.08,1.95-3.44-.14-.09,2.35,3.94.16-.08,1.97Z"/>
      <path class="cls-12" d="M124.84,15.36l-.43,3.4-2.35-.3,1.32-10.45,3.64.46c1.3.16,2.26.57,2.87,1.23.61.65.85,1.54.71,2.65-.15,1.16-.64,2.01-1.49,2.56-.85.55-1.91.74-3.2.58l-1.06-.13ZM125.5,10.12l-.43,3.43.98.12c.58.07,1.05-.02,1.41-.29.35-.27.57-.69.64-1.26.07-.53-.04-.96-.31-1.28s-.7-.52-1.27-.6l-1.02-.13Z"/>
      <path class="cls-12" d="M129.4,19.34l6-9.45,2.75.62,1.28,11.09-2.44-.55-.25-2.22-3.77-.85-1.16,1.9-2.42-.54ZM133.93,16.21l2.69.61-.29-3.84c0-.14-.02-.26-.03-.38,0-.12-.01-.25-.02-.4h-.06c-.06.1-.11.21-.17.32-.06.11-.13.22-.2.35l-1.93,3.35Z"/>
      <path class="cls-12" d="M148.47,24.68l-2.53-.85-.57-3.2c-.08-.43-.18-.76-.31-.97-.13-.22-.33-.37-.59-.46l-.61-.2-1.25,3.71-2.25-.76,3.38-9.98,3.56,1.21c1.24.42,2.07.99,2.48,1.7.42.72.48,1.5.19,2.36-.21.63-.59,1.13-1.13,1.52-.54.39-1.18.56-1.92.53v.03c.21.19.39.44.53.75.14.31.26.73.36,1.24l.65,3.38ZM145.41,14.43l-.96,2.83.97.33c.51.17.96.17,1.33,0,.37-.18.63-.49.78-.94.15-.43.13-.81-.05-1.13-.18-.32-.53-.57-1.06-.75l-1.02-.34Z"/>
      <path class="cls-12" d="M158.76,19.87l-2.58-1.14-3.46,7.87-2.18-.96,3.46-7.87-2.58-1.14.78-1.77,7.34,3.23-.78,1.77Z"/>
      <path class="cls-12" d="M162,31.39l-5.55-3.02,5.04-9.25,5.33,2.91-.94,1.73-3.25-1.77-1.1,2.01,3.03,1.65-.94,1.72-3.02-1.65-1.13,2.06,3.46,1.89-.94,1.73Z"/>
      <path class="cls-12" d="M172.99,38.85l-1.92-1.35,3.62-5.16c.16-.22.31-.44.46-.65.15-.21.33-.44.52-.7l-.05-.03c-.14.1-.26.19-.37.27-.11.08-.22.16-.32.23l-6.14,4.44-1.59-1.11,2.02-7.25c.04-.14.08-.27.12-.38.04-.11.09-.28.16-.5l-.05-.04c-.24.36-.45.68-.64.96-.19.28-.38.55-.56.82l-3.35,4.77-1.78-1.25,6.05-8.62,2.87,2.02-1.83,6.35c-.06.23-.12.42-.18.59-.06.17-.13.37-.21.62l.04.02c.22-.17.4-.3.53-.39.13-.09.3-.22.52-.37l5.34-3.86,2.77,1.95-6.05,8.62Z"/>
      <path class="cls-12" d="M179.16,44.41l-4.73-4.19,6.99-7.88,4.55,4.03-1.31,1.47-2.77-2.46-1.52,1.72,2.58,2.28-1.3,1.46-2.58-2.28-1.56,1.76,2.95,2.62-1.31,1.47Z"/>
      <path class="cls-12" d="M186.55,52.22l-1.63-1.76,1.83-7.6c.06-.22.12-.41.17-.57.05-.16.09-.29.14-.39l-.02-.02c-.13.13-.3.3-.5.49-.21.2-.45.42-.73.68l-4.16,3.85-1.52-1.65,7.73-7.15,1.74,1.88-1.78,7.34c-.04.16-.09.32-.14.48-.05.16-.1.32-.15.47l.02.02c.08-.09.21-.22.39-.39.17-.17.39-.37.66-.62l4.19-3.88,1.52,1.65-7.73,7.15Z"/>
      <path class="cls-12" d="M198.94,54.37l-1.69-2.26-6.89,5.15-1.43-1.91,6.89-5.15-1.69-2.26,1.55-1.16,4.81,6.42-1.55,1.16Z"/>
      <path class="cls-12" d="M191.68,58.9l10.94-2.34,1.48,2.39-7.01,8.69-1.32-2.12,1.41-1.73-2.04-3.28-2.17.51-1.3-2.1ZM197.09,59.94l1.45,2.34,2.54-2.9c.09-.1.17-.2.25-.29.08-.09.17-.18.27-.29l-.03-.05c-.12.04-.24.08-.36.11-.12.03-.25.07-.39.1l-3.74.97Z"/>
      <path class="cls-12" d="M200.29,74.18l-2.8-5.61,9.43-4.7,1.06,2.12-7.64,3.81,1.74,3.49-1.79.89Z"/>
      <path class="cls-12" d="M203.06,81.02l-2.36-5.86,9.77-3.94,2.27,5.63-1.83.74-1.39-3.43-2.13.86,1.29,3.19-1.81.73-1.29-3.19-2.18.88,1.48,3.66-1.83.74Z"/>
    </g>
  </g>
</svg>